<?xml version="1.0" encoding="utf-8" ?>
<svg baseProfile="full" height="1024px" version="1.1" width="1024px" xmlns="http://www.w3.org/2000/svg" xmlns:ev="http://www.w3.org/2001/xml-events" xmlns:xlink="http://www.w3.org/1999/xlink"><defs /><path d="M 503,662 L 502,663 L 496,663 L 495,664 L 493,664 L 492,665 L 489,665 L 488,666 L 486,666 L 485,667 L 483,667 L 482,668 L 480,668 L 479,669 L 478,669 L 477,670 L 476,670 L 475,671 L 474,671 L 473,672 L 472,672 L 471,673 L 470,673 L 468,675 L 467,675 L 465,677 L 464,677 L 461,680 L 460,680 L 254,886 L 320,952 L 321,952 L 384,889 L 385,889 L 385,888 L 488,785 L 489,785 L 494,780 L 495,780 L 496,779 L 497,779 L 498,778 L 499,778 L 500,777 L 502,777 L 503,776 L 506,776 L 507,775 L 517,775 L 518,776 L 521,776 L 522,777 L 524,777 L 525,778 L 526,778 L 527,779 L 528,779 L 530,781 L 531,781 L 583,833 L 584,833 L 703,952 L 704,952 L 770,886 L 768,884 L 767,884 L 765,882 L 765,881 L 764,881 L 763,880 L 763,879 L 762,879 L 761,878 L 761,877 L 760,877 L 748,865 L 748,864 L 747,864 L 725,842 L 725,841 L 724,840 L 723,840 L 717,834 L 717,833 L 716,833 L 715,832 L 715,831 L 714,831 L 712,829 L 712,828 L 711,828 L 710,827 L 710,826 L 709,826 L 697,814 L 697,813 L 696,813 L 690,807 L 690,806 L 689,806 L 686,803 L 686,802 L 685,802 L 684,801 L 684,800 L 683,799 L 682,799 L 676,793 L 676,792 L 675,792 L 673,790 L 673,789 L 672,788 L 671,788 L 667,784 L 667,783 L 666,782 L 665,782 L 659,776 L 659,775 L 658,774 L 657,774 L 654,771 L 654,770 L 653,770 L 644,761 L 644,760 L 643,759 L 642,759 L 640,757 L 640,756 L 637,753 L 636,753 L 635,752 L 635,751 L 634,751 L 627,744 L 627,743 L 626,743 L 622,739 L 622,738 L 621,738 L 611,728 L 611,727 L 610,727 L 603,720 L 603,719 L 602,719 L 568,685 L 568,684 L 567,684 L 561,678 L 560,678 L 557,675 L 556,675 L 555,674 L 554,674 L 552,672 L 551,672 L 550,671 L 549,671 L 548,670 L 547,670 L 546,669 L 544,669 L 543,668 L 542,668 L 541,667 L 539,667 L 538,666 L 536,666 L 535,665 L 532,665 L 531,664 L 528,664 L 527,663 L 521,663 L 520,662 Z" fill="#145E65" /><path d="M 882,285 L 877,290 L 877,291 L 873,295 L 872,295 L 798,369 L 798,370 L 789,379 L 788,379 L 788,380 L 786,382 L 785,382 L 785,383 L 777,391 L 776,391 L 776,392 L 774,394 L 773,394 L 773,395 L 760,408 L 759,408 L 757,410 L 757,411 L 752,416 L 751,416 L 750,417 L 750,418 L 746,422 L 745,422 L 741,426 L 741,427 L 738,430 L 737,430 L 737,431 L 735,433 L 734,433 L 734,434 L 696,472 L 696,473 L 694,475 L 694,476 L 692,478 L 692,479 L 690,481 L 690,482 L 689,483 L 689,484 L 688,485 L 688,486 L 687,487 L 687,488 L 686,489 L 686,490 L 685,491 L 685,493 L 684,494 L 684,495 L 683,496 L 683,499 L 682,500 L 682,503 L 681,504 L 681,509 L 680,510 L 680,519 L 679,520 L 679,530 L 680,531 L 680,538 L 681,539 L 681,544 L 682,545 L 682,548 L 683,549 L 683,551 L 684,552 L 684,554 L 685,555 L 685,557 L 686,558 L 686,559 L 687,560 L 687,562 L 688,563 L 688,564 L 690,566 L 690,567 L 691,568 L 691,569 L 692,570 L 692,571 L 694,573 L 694,574 L 697,577 L 697,578 L 802,683 L 803,683 L 805,685 L 805,686 L 807,688 L 808,688 L 815,695 L 815,696 L 816,696 L 882,762 L 883,762 L 941,704 L 942,704 L 942,703 L 944,701 L 945,701 L 945,700 L 947,698 L 929,680 L 929,679 L 928,679 L 925,676 L 925,675 L 924,675 L 918,669 L 918,668 L 917,668 L 877,628 L 877,627 L 876,627 L 875,626 L 875,625 L 874,625 L 869,620 L 869,619 L 868,619 L 865,616 L 865,615 L 864,615 L 861,612 L 861,611 L 860,611 L 856,607 L 856,606 L 855,606 L 846,597 L 846,596 L 845,596 L 837,588 L 837,587 L 836,587 L 802,553 L 802,552 L 801,552 L 799,550 L 799,549 L 793,543 L 793,542 L 792,541 L 792,540 L 790,538 L 790,536 L 789,535 L 789,533 L 788,532 L 788,527 L 787,526 L 787,521 L 788,520 L 788,516 L 789,515 L 789,513 L 790,512 L 790,511 L 791,510 L 791,509 L 792,508 L 792,507 L 793,506 L 793,505 L 898,400 L 898,399 L 899,398 L 900,398 L 901,397 L 901,396 L 904,393 L 905,393 L 905,392 L 913,384 L 914,384 L 914,383 L 916,381 L 917,381 L 917,380 L 927,370 L 928,370 L 929,369 L 929,368 L 944,353 L 945,353 L 946,352 L 946,351 L 947,350 L 948,350 L 948,349 L 947,348 L 946,348 L 945,347 L 945,346 L 944,345 L 943,345 L 938,340 L 938,339 L 937,339 L 933,335 L 933,334 L 931,332 L 930,332 L 929,331 L 929,330 L 928,330 L 926,328 L 926,327 L 925,327 L 922,324 L 922,323 L 921,322 L 920,322 L 912,314 L 912,313 L 911,313 L 894,296 L 894,295 L 892,293 L 891,293 L 883,285 Z" fill="#145E65" /><path d="M 141,285 L 123,303 L 122,303 L 122,304 L 111,315 L 110,315 L 109,316 L 109,317 L 104,322 L 103,322 L 101,324 L 101,325 L 99,327 L 98,327 L 98,328 L 97,329 L 96,329 L 90,335 L 90,336 L 88,338 L 87,338 L 81,344 L 81,345 L 80,346 L 79,346 L 78,347 L 78,348 L 77,349 L 76,349 L 76,350 L 85,359 L 86,359 L 87,360 L 87,361 L 88,361 L 97,370 L 97,371 L 98,372 L 99,372 L 197,470 L 197,471 L 198,471 L 199,472 L 199,473 L 200,473 L 225,498 L 225,499 L 226,499 L 228,501 L 228,502 L 231,505 L 231,506 L 233,508 L 233,509 L 234,510 L 234,512 L 235,513 L 235,515 L 236,516 L 236,520 L 237,521 L 237,528 L 236,529 L 236,533 L 235,534 L 235,536 L 234,537 L 234,538 L 233,539 L 233,540 L 232,541 L 232,542 L 229,545 L 229,546 L 77,698 L 77,699 L 78,699 L 142,763 L 313,592 L 313,591 L 330,574 L 330,573 L 332,571 L 332,570 L 333,569 L 333,568 L 335,566 L 335,565 L 336,564 L 336,563 L 337,562 L 337,561 L 338,560 L 338,558 L 339,557 L 339,555 L 340,554 L 340,552 L 341,551 L 341,549 L 342,548 L 342,545 L 343,544 L 343,539 L 344,538 L 344,533 L 345,532 L 345,515 L 344,514 L 344,509 L 343,508 L 343,504 L 342,503 L 342,500 L 341,499 L 341,497 L 340,496 L 340,494 L 339,493 L 339,491 L 338,490 L 338,489 L 337,488 L 337,487 L 336,486 L 336,485 L 335,484 L 335,483 L 334,482 L 334,481 L 332,479 L 332,478 L 331,477 L 331,476 L 328,473 L 328,472 L 184,328 L 184,327 L 183,327 L 144,288 L 144,287 L 143,287 Z" fill="#145E65" /><path d="M 320,97 L 254,163 L 254,164 L 265,175 L 266,175 L 271,180 L 271,181 L 272,181 L 275,184 L 275,185 L 276,185 L 293,202 L 293,203 L 294,203 L 309,218 L 309,219 L 311,221 L 312,221 L 319,228 L 319,229 L 320,229 L 325,234 L 325,235 L 326,235 L 330,239 L 330,240 L 331,240 L 335,244 L 335,245 L 338,248 L 339,248 L 340,249 L 340,250 L 343,253 L 344,253 L 345,254 L 345,255 L 346,255 L 349,258 L 349,259 L 350,260 L 351,260 L 354,263 L 354,264 L 355,264 L 357,266 L 357,267 L 361,271 L 362,271 L 363,272 L 363,273 L 365,275 L 366,275 L 367,276 L 367,277 L 373,283 L 374,283 L 375,284 L 375,285 L 376,285 L 377,286 L 377,287 L 383,293 L 384,293 L 389,298 L 389,299 L 390,299 L 396,305 L 396,306 L 397,307 L 398,307 L 399,308 L 399,309 L 400,309 L 401,310 L 401,311 L 408,318 L 409,318 L 410,319 L 410,320 L 431,341 L 432,341 L 433,342 L 433,343 L 439,349 L 440,349 L 441,350 L 441,351 L 447,357 L 448,357 L 450,359 L 450,360 L 451,360 L 452,361 L 452,362 L 455,365 L 456,365 L 463,372 L 464,372 L 466,374 L 467,374 L 469,376 L 470,376 L 471,377 L 472,377 L 473,378 L 474,378 L 476,380 L 478,380 L 479,381 L 480,381 L 481,382 L 483,382 L 484,383 L 486,383 L 487,384 L 489,384 L 490,385 L 494,385 L 495,386 L 499,386 L 500,387 L 506,387 L 507,388 L 506,389 L 507,388 L 519,388 L 520,387 L 526,387 L 527,386 L 531,386 L 532,385 L 534,385 L 535,384 L 538,384 L 539,383 L 540,383 L 541,382 L 543,382 L 544,381 L 545,381 L 546,380 L 547,380 L 548,379 L 550,379 L 551,378 L 552,378 L 554,376 L 555,376 L 556,375 L 557,375 L 560,372 L 561,372 L 564,369 L 565,369 L 770,164 L 770,163 L 729,122 L 728,122 L 726,120 L 726,119 L 723,116 L 722,116 L 720,114 L 720,113 L 719,113 L 718,112 L 718,111 L 716,109 L 715,109 L 704,98 L 704,97 L 703,97 L 534,266 L 533,266 L 530,269 L 529,269 L 528,270 L 527,270 L 526,271 L 524,271 L 523,272 L 522,272 L 521,273 L 518,273 L 517,274 L 507,274 L 506,273 L 503,273 L 502,272 L 500,272 L 499,271 L 498,271 L 497,270 L 496,270 L 495,269 L 494,269 L 492,267 L 491,267 L 475,251 L 474,251 L 472,249 L 472,248 L 471,247 L 470,247 L 469,246 L 469,245 L 463,239 L 462,239 L 452,229 L 452,228 L 451,228 L 449,226 L 449,225 L 447,223 L 446,223 L 444,221 L 444,220 L 443,219 L 442,219 L 441,218 L 441,217 L 440,216 L 439,216 L 436,213 L 436,212 L 435,212 L 432,209 L 432,208 L 431,207 L 430,207 L 427,204 L 427,203 L 426,203 L 423,200 L 423,199 L 419,195 L 418,195 L 417,194 L 417,193 L 416,192 L 415,192 L 414,191 L 414,190 L 413,189 L 412,189 L 410,187 L 410,186 L 403,179 L 402,179 L 401,178 L 401,177 L 400,177 L 399,176 L 399,175 L 398,175 L 397,174 L 397,173 L 393,169 L 392,169 L 385,162 L 385,161 L 384,160 L 383,160 L 381,158 L 381,157 L 379,155 L 378,155 L 376,153 L 376,152 L 375,152 L 367,144 L 367,143 L 366,143 L 361,138 L 361,137 L 360,137 L 357,134 L 357,133 L 356,132 L 355,132 L 353,130 L 353,129 L 351,127 L 350,127 L 343,120 L 343,119 L 342,119 L 341,118 L 341,117 L 340,116 L 339,116 L 338,115 L 338,114 L 335,111 L 334,111 L 333,110 L 333,109 L 331,107 L 330,107 L 329,106 L 329,105 L 321,97 Z" fill="#145E65" /></svg>