<?xml version="1.0" encoding="UTF-8"?>
<svg version="1.1" xmlns="http://www.w3.org/2000/svg" width="180" height="180">
<path d="M0 0 C0.99 0.99 0.99 0.99 2 2 C4.32173505 2.57510868 6.64438348 2.9509944 9.00390625 3.33984375 C9.66261719 3.55769531 10.32132812 3.77554688 11 4 C11.495 5.485 11.495 5.485 12 7 C14.01508358 7.73323796 14.01508358 7.73323796 16 8 C16 8.99 16 9.98 16 11 C16.556875 11.061875 17.11375 11.12375 17.6875 11.1875 C21.027159 12.3608937 22.71500747 14.34446814 25 17 C25.8125 19.3125 25.8125 19.3125 26 21 C27.32 21 28.64 21 30 21 C30.495 22.485 30.495 22.485 31 24 C33.00121175 26.36506843 33.96799661 26.9893322 37 28 C39.6875 30.4375 39.6875 30.4375 42 33 C42 33.66 42 34.32 42 35 C42.66 35 43.32 35 44 35 C44 36.32 44 37.64 44 39 C45.98 39.495 45.98 39.495 48 40 C48 40.66 48 41.32 48 42 C49.98 42.495 49.98 42.495 52 43 C52 43.99 52 44.98 52 46 C52.61875 46.0825 53.2375 46.165 53.875 46.25 C56 47 56 47 57.25 48.6875 C58.22696861 51.69981988 58.38625228 53.84560642 58 57 C56.125 59.875 56.125 59.875 54 62 C53.34 62 52.68 62 52 62 C51.67 63.32 51.34 64.64 51 66 C50.01 66 49.02 66 48 66 C47.67 67.98 47.34 69.96 47 72 C29.17522731 73.47593659 29.17522731 73.47593659 24.25390625 70.13671875 C22.5603433 67.83211527 21.30983344 65.5357032 20 63 C19.2884375 62.30390625 18.576875 61.6078125 17.84375 60.890625 C16 59 16 59 16 56 C14.9171875 55.9071875 14.9171875 55.9071875 13.8125 55.8125 C10.15455201 54.75575947 8.43821768 52.76244876 6 50 C5.3090625 49.26523438 4.618125 48.53046875 3.90625 47.7734375 C-2 41.38886444 -2 41.38886444 -2 38 C-3.32 38 -4.64 38 -6 38 C-6.103125 38.598125 -6.20625 39.19625 -6.3125 39.8125 C-7.09824033 42.31258286 -7.96918853 43.37535082 -10 45 C-10.66 45 -11.32 45 -12 45 C-12.268125 45.639375 -12.53625 46.27875 -12.8125 46.9375 C-14 49 -14 49 -17 50 C-17 50.66 -17 51.32 -17 52 C-17.99 52 -18.98 52 -20 52 C-20.33 53.32 -20.66 54.64 -21 56 C-21.99 56 -22.98 56 -24 56 C-24.103125 56.598125 -24.20625 57.19625 -24.3125 57.8125 C-25.1032679 60.32857968 -26.08428637 61.23754346 -28 63 C-28.66 63.99 -29.32 64.98 -30 66 C-31.32520503 66.68268138 -32.65812182 67.3507041 -34 68 C-34.33 68.66 -34.66 69.32 -35 70 C-35.66 70 -36.32 70 -37 70 C-37 70.66 -37 71.32 -37 72 C-42.28 72 -47.56 72 -53 72 C-53 71.34 -53 70.68 -53 70 C-53.99 69.67 -54.98 69.34 -56 69 C-56 68.01 -56 67.02 -56 66 C-56.598125 65.896875 -57.19625 65.79375 -57.8125 65.6875 C-60.33421352 64.89496146 -61.39685699 64.08408591 -63 62 C-63 61.01 -63 60.02 -63 59 C-64.32 58.67 -65.64 58.34 -67 58 C-67.15645449 48.45627603 -67.15645449 48.45627603 -64.3125 44.875 C-61.53431968 42.62242136 -59.51653861 42.31968533 -56 42 C-55.67 41.01 -55.34 40.02 -55 39 C-54.01 38.505 -54.01 38.505 -53 38 C-52.67 37.175 -52.34 36.35 -52 35.5 C-51 33 -51 33 -49 32 C-48.731875 31.38125 -48.46375 30.7625 -48.1875 30.125 C-46.6028455 27.28930248 -44.90552193 26.38358187 -42 25 C-40.68 25 -39.36 25 -38 25 C-38 23.68 -38 22.36 -38 21 C-36.68 21 -35.36 21 -34 21 C-33.9175 20.278125 -33.835 19.55625 -33.75 18.8125 C-32.31936429 13.44761609 -28.44201291 10.10940904 -24 7 C-22.67139075 6.64830932 -21.33841672 6.31229724 -20 6 C-19.55269531 5.53078125 -19.10539062 5.0615625 -18.64453125 4.578125 C-13.83936182 -0.03301146 -6.30964529 -0.55347766 0 0 Z " fill="#1D4E56" transform="translate(94,108)"/>
<path d="M0 0 C4.95 0 9.9 0 15 0 C15 0.66 15 1.32 15 2 C15.99 2 16.98 2 18 2 C19.02104551 2.97850195 20.0206121 3.97980427 21 5 C21.99 5.33 22.98 5.66 24 6 C25.02019573 6.9793879 26.02149805 7.97895449 27 9 C27.66 9.33 28.32 9.66 29 10 C29 10.99 29 11.98 29 13 C29.99 13.33 30.98 13.66 32 14 C32.0825 14.78375 32.165 15.5675 32.25 16.375 C32.70626328 19.07713392 32.70626328 19.07713392 34.6875 20.0625 C35.450625 20.371875 36.21375 20.68125 37 21 C40.25 23 40.25 23 43 25 C43 25.66 43 26.32 43 27 C43.99 27 44.98 27 46 27 C46.66 27.99 47.32 28.98 48 30 C48.99 30 49.98 30 51 30 C51.99 28.515 51.99 28.515 53 27 C53.66 27 54.32 27 55 27 C55.495 25.515 55.495 25.515 56 24 C57.70703125 22.2109375 57.70703125 22.2109375 59.8125 20.375 C60.49957031 19.76398437 61.18664062 19.15296875 61.89453125 18.5234375 C64.01848562 16.9866245 65.49994814 16.59654166 68 16 C68.72904086 14.35965807 69.38655243 12.68698082 70 11 C71.6875 8.5625 71.6875 8.5625 74 6 C74.62068359 5.18402344 74.62068359 5.18402344 75.25390625 4.3515625 C78.20502541 1.06911664 80.63180398 -0.13864928 85.01171875 -0.37890625 C89.02026597 -0.43733078 93.00046133 -0.25927382 97 0 C97 0.66 97 1.32 97 2 C98.32 2.33 99.64 2.66 101 3 C101 3.66 101 4.32 101 5 C102.32 5.33 103.64 5.66 105 6 C105 6.99 105 7.98 105 9 C105.99 9 106.98 9 108 9 C110.12149527 11.67151256 110.94443003 13.61894879 111.4375 17 C110.89484595 20.72105636 109.63395916 22.36604084 107 25 C106.34 25 105.68 25 105 25 C104.67 26.32 104.34 27.64 104 29 C103.01 29 102.02 29 101 29 C100.814375 29.9590625 100.814375 29.9590625 100.625 30.9375 C100.41875 31.618125 100.2125 32.29875 100 33 C99.01 33.495 99.01 33.495 98 34 C97.67 34.99 97.34 35.98 97 37 C95.68 37 94.36 37 93 37 C92.67 37.99 92.34 38.98 92 40 C90.33333333 41.33333333 88.66666667 42.66666667 87 44 C86.67 44.99 86.34 45.98 86 47 C85.01 47 84.02 47 83 47 C82.67 48.32 82.34 49.64 82 51 C81.01 51 80.02 51 79 51 C78.67 51.99 78.34 52.98 78 54 C76.44140625 55.38671875 76.44140625 55.38671875 74.5625 56.6875 C73.94503906 57.12449219 73.32757813 57.56148437 72.69140625 58.01171875 C71 59 71 59 69 59 C68.9175 59.7425 68.835 60.485 68.75 61.25 C67.81624195 64.67377952 66.81552724 65.85130816 64 68 C60.25 69.25 60.25 69.25 57 70 C57 70.66 57 71.32 57 72 C51.72 72 46.44 72 41 72 C41 71.34 41 70.68 41 70 C39.88625 69.731875 38.7725 69.46375 37.625 69.1875 C34 68 34 68 32 65 C31.154375 64.505 30.30875 64.01 29.4375 63.5 C27 62 27 62 26 59 C23.99983534 57.79117904 23.99983534 57.79117904 22 57 C22 56.01 22 55.02 22 54 C21.01 54 20.02 54 19 54 C19 53.01 19 52.02 19 51 C18.360625 50.896875 17.72125 50.79375 17.0625 50.6875 C16.381875 50.460625 15.70125 50.23375 15 50 C14.67 49.01 14.34 48.02 14 47 C13.175 46.525625 12.35 46.05125 11.5 45.5625 C9 44 9 44 8.1875 41.8125 C8.0946875 40.9153125 8.0946875 40.9153125 8 40 C7.01 40 6.02 40 5 40 C4.67 39.34 4.34 38.68 4 38 C2.515 37.505 2.515 37.505 1 37 C0.505 35.515 0.505 35.515 0 34 C-0.99 33.34 -1.98 32.68 -3 32 C-3 31.01 -3 30.02 -3 29 C-3.598125 28.896875 -4.19625 28.79375 -4.8125 28.6875 C-7.33421352 27.89496146 -8.39685699 27.08408591 -10 25 C-10 24.01 -10 23.02 -10 22 C-11.32 21.67 -12.64 21.34 -14 21 C-13.81045025 12.12562535 -13.81045025 12.12562535 -10.75 7.875 C-7.79064463 5.8572577 -6.49411815 5.50084026 -3 6 C-2.67 4.68 -2.34 3.36 -2 2 C-1.34 2 -0.68 2 0 2 C0 1.34 0 0.68 0 0 Z " fill="#1D4E56" transform="translate(41,0)"/>
<path d="M0 0 C4.0859375 4.57973563 4.0859375 4.57973563 4.0859375 8.41015625 C4.7459375 8.41015625 5.4059375 8.41015625 6.0859375 8.41015625 C6.0859375 14.02015625 6.0859375 19.63015625 6.0859375 25.41015625 C5.4259375 25.41015625 4.7659375 25.41015625 4.0859375 25.41015625 C3.7559375 27.06015625 3.4259375 28.71015625 3.0859375 30.41015625 C1.6009375 30.90515625 1.6009375 30.90515625 0.0859375 31.41015625 C0.0859375 32.40015625 0.0859375 33.39015625 0.0859375 34.41015625 C-1.88540236 35.78550964 -3.89088172 37.11226669 -5.9140625 38.41015625 C-6.8009375 39.29703125 -7.6878125 40.18390625 -8.6015625 41.09765625 C-10.9140625 43.41015625 -10.9140625 43.41015625 -13.9140625 44.41015625 C-14.2440625 46.06015625 -14.5740625 47.71015625 -14.9140625 49.41015625 C-15.9040625 49.74015625 -16.8940625 50.07015625 -17.9140625 50.41015625 C-18.5740625 51.40015625 -19.2340625 52.39015625 -19.9140625 53.41015625 C-22.0390625 54.59765625 -22.0390625 54.59765625 -23.9140625 55.41015625 C-23.9140625 56.73015625 -23.9140625 58.05015625 -23.9140625 59.41015625 C-22.46 60.09078125 -22.46 60.09078125 -20.9765625 60.78515625 C-17.9140625 62.41015625 -17.9140625 62.41015625 -16.9140625 64.41015625 C-15.9240625 64.74015625 -14.9340625 65.07015625 -13.9140625 65.41015625 C-13.9140625 66.40015625 -13.9140625 67.39015625 -13.9140625 68.41015625 C-12.9240625 68.41015625 -11.9340625 68.41015625 -10.9140625 68.41015625 C-10.5840625 69.40015625 -10.2540625 70.39015625 -9.9140625 71.41015625 C-8.9240625 72.07015625 -7.9340625 72.73015625 -6.9140625 73.41015625 C-6.9140625 74.40015625 -6.9140625 75.39015625 -6.9140625 76.41015625 C-6.2540625 76.41015625 -5.5940625 76.41015625 -4.9140625 76.41015625 C-4.9140625 77.07015625 -4.9140625 77.73015625 -4.9140625 78.41015625 C-3.2640625 79.07015625 -1.6140625 79.73015625 0.0859375 80.41015625 C0.0859375 81.07015625 0.0859375 81.73015625 0.0859375 82.41015625 C2.0659375 82.90515625 2.0659375 82.90515625 4.0859375 83.41015625 C4.0859375 84.07015625 4.0859375 84.73015625 4.0859375 85.41015625 C4.7459375 85.41015625 5.4059375 85.41015625 6.0859375 85.41015625 C6.1727357 89.20167959 6.22625957 92.99294921 6.2734375 96.78515625 C6.29857422 97.86539063 6.32371094 98.945625 6.34960938 100.05859375 C6.35927734 101.08984375 6.36894531 102.12109375 6.37890625 103.18359375 C6.3946167 104.13669434 6.41032715 105.08979492 6.42651367 106.07177734 C6.31412354 106.84344238 6.2017334 107.61510742 6.0859375 108.41015625 C3.0859375 110.41015625 3.0859375 110.41015625 0.0859375 110.41015625 C-0.4090625 111.89515625 -0.4090625 111.89515625 -0.9140625 113.41015625 C-2.56844863 114.10673988 -4.23660568 114.77112508 -5.9140625 115.41015625 C-7.68683509 116.93023467 -7.68683509 116.93023467 -8.9140625 118.41015625 C-13.22171065 116.84373874 -16.97577714 114.72679469 -20.9140625 112.41015625 C-20.9140625 111.75015625 -20.9140625 111.09015625 -20.9140625 110.41015625 C-21.9040625 110.08015625 -22.8940625 109.75015625 -23.9140625 109.41015625 C-24.2440625 108.42015625 -24.5740625 107.43015625 -24.9140625 106.41015625 C-28.32563334 102.58506167 -32.13483578 99.71572721 -36.33984375 96.83984375 C-36.85933594 96.36804688 -37.37882812 95.89625 -37.9140625 95.41015625 C-37.9140625 94.42015625 -37.9140625 93.43015625 -37.9140625 92.41015625 C-38.5121875 92.30703125 -39.1103125 92.20390625 -39.7265625 92.09765625 C-42.25251045 91.30378689 -43.26291657 90.45443216 -44.9140625 88.41015625 C-45.2440625 87.42015625 -45.5740625 86.43015625 -45.9140625 85.41015625 C-47.91527425 83.04508782 -48.88205911 82.42082405 -51.9140625 81.41015625 C-51.9140625 80.42015625 -51.9140625 79.43015625 -51.9140625 78.41015625 C-53.5640625 77.75015625 -55.2140625 77.09015625 -56.9140625 76.41015625 C-56.9140625 75.75015625 -56.9140625 75.09015625 -56.9140625 74.41015625 C-57.9040625 74.08015625 -58.8940625 73.75015625 -59.9140625 73.41015625 C-63.83260845 67.98118896 -64.62700339 63.64844241 -64.5390625 57.03515625 C-64.53213379 56.19170654 -64.52520508 55.34825684 -64.51806641 54.47924805 C-64.27565654 47.57190614 -62.6072651 43.52124675 -57.9140625 38.41015625 C-56.90931131 36.9133346 -55.90919701 35.41338854 -54.9140625 33.91015625 C-52.72974892 30.99773814 -52.1936403 30.49299412 -48.5390625 29.41015625 C-47.6728125 29.41015625 -46.8065625 29.41015625 -45.9140625 29.41015625 C-45.5840625 28.42015625 -45.2540625 27.43015625 -44.9140625 26.41015625 C-40.45691964 22.41015625 -40.45691964 22.41015625 -37.9140625 22.41015625 C-38.00429687 21.64960937 -38.09453125 20.8890625 -38.1875 20.10546875 C-37.9140625 17.41015625 -37.9140625 17.41015625 -36.015625 15.71484375 C-35.19835937 15.24304688 -34.38109375 14.77125 -33.5390625 14.28515625 C-30.36170456 12.41908889 -29.00674709 11.54918314 -26.9140625 8.41015625 C-25.9240625 8.41015625 -24.9340625 8.41015625 -23.9140625 8.41015625 C-23.5840625 7.09015625 -23.2540625 5.77015625 -22.9140625 4.41015625 C-22.2540625 4.41015625 -21.5940625 4.41015625 -20.9140625 4.41015625 C-20.6459375 3.62640625 -20.3778125 2.84265625 -20.1015625 2.03515625 C-18.9140625 -0.58984375 -18.9140625 -0.58984375 -15.9140625 -2.58984375 C-10.58995528 -4.46894042 -4.3648489 -3.62549694 0 0 Z " fill="#1D4D55" transform="translate(173.9140625,32.58984375)"/>
<path d="M0 0 C0.61101563 0.38671875 1.22203125 0.7734375 1.8515625 1.171875 C2.6146875 1.543125 3.3778125 1.914375 4.1640625 2.296875 C7.45226216 4.59096778 9.69114841 7.3266576 12.203125 10.4296875 C13.83456932 12.42830172 13.83456932 12.42830172 16.8515625 13.171875 C18.09718409 14.61417368 19.33815198 16.06161317 20.52734375 17.55078125 C23.08992997 20.68787058 25.85006999 23.46812351 29.1640625 25.796875 C29.7209375 26.250625 30.2778125 26.704375 30.8515625 27.171875 C30.8515625 28.161875 30.8515625 29.151875 30.8515625 30.171875 C32.1715625 30.501875 33.4915625 30.831875 34.8515625 31.171875 C34.8515625 32.161875 34.8515625 33.151875 34.8515625 34.171875 C36.1715625 34.501875 37.4915625 34.831875 38.8515625 35.171875 C38.8515625 35.831875 38.8515625 36.491875 38.8515625 37.171875 C39.8415625 37.501875 40.8315625 37.831875 41.8515625 38.171875 C45.2580292 41.23769503 47.52646504 44.26148381 49.8515625 48.171875 C51.3365625 49.161875 51.3365625 49.161875 52.8515625 50.171875 C54.23011322 57.58650852 55.34477305 68.1854539 51.8515625 75.171875 C50.8615625 75.171875 49.8715625 75.171875 48.8515625 75.171875 C48.8103125 75.749375 48.7690625 76.326875 48.7265625 76.921875 C47.38893601 80.36148598 44.99198625 81.4132377 41.8515625 83.171875 C40.8615625 83.171875 39.8715625 83.171875 38.8515625 83.171875 C38.7484375 83.955625 38.6453125 84.739375 38.5390625 85.546875 C37.8515625 88.171875 37.8515625 88.171875 34.8515625 90.171875 C34.3565625 91.656875 34.3565625 91.656875 33.8515625 93.171875 C32.8615625 93.171875 31.8715625 93.171875 30.8515625 93.171875 C30.3565625 94.656875 30.3565625 94.656875 29.8515625 96.171875 C28.20335006 97.20200777 26.53652548 98.20302128 24.8515625 99.171875 C24.5215625 99.831875 24.1915625 100.491875 23.8515625 101.171875 C22.8615625 101.171875 21.8715625 101.171875 20.8515625 101.171875 C20.5215625 102.821875 20.1915625 104.471875 19.8515625 106.171875 C18.8615625 106.501875 17.8715625 106.831875 16.8515625 107.171875 C16.8515625 108.161875 16.8515625 109.151875 16.8515625 110.171875 C16.2121875 110.275 15.5728125 110.378125 14.9140625 110.484375 C14.2334375 110.71125 13.5528125 110.938125 12.8515625 111.171875 C12.5215625 112.161875 12.1915625 113.151875 11.8515625 114.171875 C10.51822917 114.50520833 9.18489583 114.83854167 7.8515625 115.171875 C7.5215625 116.161875 7.1915625 117.151875 6.8515625 118.171875 C4.01915049 119.93581016 1.15639072 120.78958132 -2.1484375 121.171875 C-5.42923514 120.28383955 -8.2325094 118.90213021 -11.1484375 117.171875 C-11.1484375 116.511875 -11.1484375 115.851875 -11.1484375 115.171875 C-11.7671875 114.90375 -12.3859375 114.635625 -13.0234375 114.359375 C-15.1484375 113.171875 -15.1484375 113.171875 -17.1484375 110.171875 C-17.37548828 108.0871582 -17.37548828 108.0871582 -17.34375 105.72265625 C-17.33730469 104.87509766 -17.33085937 104.02753906 -17.32421875 103.15429688 C-17.30746094 102.27322266 -17.29070313 101.39214844 -17.2734375 100.484375 C-17.26441406 99.59169922 -17.25539063 98.69902344 -17.24609375 97.77929688 C-17.22253498 95.57655186 -17.18964079 93.37434912 -17.1484375 91.171875 C-16.4884375 91.171875 -15.8284375 91.171875 -15.1484375 91.171875 C-14.8184375 89.851875 -14.4884375 88.531875 -14.1484375 87.171875 C-13.1584375 87.171875 -12.1684375 87.171875 -11.1484375 87.171875 C-11.1484375 86.181875 -11.1484375 85.191875 -11.1484375 84.171875 C-9.6634375 83.676875 -9.6634375 83.676875 -8.1484375 83.171875 C-7.7153125 82.429375 -7.2821875 81.686875 -6.8359375 80.921875 C-4.69078042 77.42606346 -2.43469637 75.61908905 0.8515625 73.171875 C1.5115625 73.171875 2.1715625 73.171875 2.8515625 73.171875 C3.3465625 71.686875 3.3465625 71.686875 3.8515625 70.171875 C5.7890625 67.984375 5.7890625 67.984375 7.8515625 66.171875 C8.5115625 66.171875 9.1715625 66.171875 9.8515625 66.171875 C10.3465625 64.686875 10.3465625 64.686875 10.8515625 63.171875 C11.5115625 63.171875 12.1715625 63.171875 12.8515625 63.171875 C12.8515625 62.511875 12.8515625 61.851875 12.8515625 61.171875 C12.1915625 61.171875 11.5315625 61.171875 10.8515625 61.171875 C9.4140625 59.23828125 9.4140625 59.23828125 7.8515625 56.734375 C5.8985709 53.36180849 5.8985709 53.36180849 2.8515625 51.171875 C2.5215625 50.181875 2.1915625 49.191875 1.8515625 48.171875 C-0.65291266 46.95317571 -0.65291266 46.95317571 -3.1484375 46.171875 C-3.1484375 45.511875 -3.1484375 44.851875 -3.1484375 44.171875 C-3.73238281 44.08421875 -4.31632813 43.9965625 -4.91796875 43.90625 C-7.75051882 42.97364157 -8.89277679 41.66430775 -10.8359375 39.421875 C-11.43792969 38.74640625 -12.03992188 38.0709375 -12.66015625 37.375 C-14.303754 34.94195767 -14.76972511 33.06018819 -15.1484375 30.171875 C-15.8084375 30.171875 -16.4684375 30.171875 -17.1484375 30.171875 C-17.1484375 24.561875 -17.1484375 18.951875 -17.1484375 13.171875 C-16.4884375 13.171875 -15.8284375 13.171875 -15.1484375 13.171875 C-15.1484375 11.851875 -15.1484375 10.531875 -15.1484375 9.171875 C-14.1584375 8.511875 -13.1684375 7.851875 -12.1484375 7.171875 C-12.01050781 6.51960938 -11.87257813 5.86734375 -11.73046875 5.1953125 C-11.1484375 3.171875 -11.1484375 3.171875 -9.22265625 1.8359375 C-8.43503906 1.49304688 -7.64742187 1.15015625 -6.8359375 0.796875 C-6.05605469 0.43851563 -5.27617187 0.08015625 -4.47265625 -0.2890625 C-2.1484375 -0.828125 -2.1484375 -0.828125 0 0 Z " fill="#1D4D55" transform="translate(17.1484375,27.828125)"/>
<path d="M0 0 C2.19507699 2.20014645 3.43262633 4.26973619 5 7 C3.68 6.67 2.36 6.34 1 6 C1 5.34 1 4.68 1 4 C-2.74332913 1.99464511 -5.73676315 1 -10 1 C-10.33 2.98 -10.66 4.96 -11 7 C-11.99 7.33 -12.98 7.66 -14 8 C-15.68933922 9.6436814 -17.35259924 11.3142876 -19 13 C-20.07466364 13.88562642 -21.15800627 14.7608323 -22.25 15.625 C-25.20737266 17.76996366 -25.20737266 17.76996366 -26 21 C-27.65365406 22.02137457 -29.32376502 23.01612294 -31 24 C-36.05376798 27.69901355 -36.05376798 27.69901355 -39 33 C-43.45714286 37 -43.45714286 37 -46 37 C-46.04125 37.598125 -46.0825 38.19625 -46.125 38.8125 C-47.43265527 42.08163817 -49.91987498 42.52410676 -53 44 C-53.33 44.99 -53.66 45.98 -54 47 C-53.34 47.33 -52.68 47.66 -52 48 C-52.64195313 48.39058594 -53.28390625 48.78117187 -53.9453125 49.18359375 C-56.54752522 51.48402895 -56.62922166 52.64618102 -56.875 56.0625 C-57.20867409 61.62373481 -56.4086282 66.63324296 -55 72 C-54.01 72.33 -53.02 72.66 -52 73 C-47.18032787 75.63934426 -47.18032787 75.63934426 -46 78 C-43.98330173 79.13350534 -43.98330173 79.13350534 -42 80 C-42 81.32 -42 82.64 -42 84 C-41.01 84 -40.02 84 -39 84 C-39 84.66 -39 85.32 -39 86 C-38.34 86 -37.68 86 -37 86 C-36.01 89.465 -36.01 89.465 -35 93 C-33.5459375 93.185625 -33.5459375 93.185625 -32.0625 93.375 C-31.051875 93.58125 -30.04125 93.7875 -29 94 C-28.67 94.66 -28.34 95.32 -28 96 C-27.01 96.33 -26.02 96.66 -25 97 C-25 97.99 -25 98.98 -25 100 C-23.68 100.33 -22.36 100.66 -21 101 C-21.33 101.61875 -21.66 102.2375 -22 102.875 C-23.14193235 104.91018344 -23.14193235 104.91018344 -23 107 C-26 106 -26 106 -27.8125 103.6875 C-29.92516181 100.81413227 -29.92516181 100.81413227 -33.25 98.875 C-34.1575 98.25625 -35.065 97.6375 -36 97 C-36 96.01 -36 95.02 -36 94 C-36.598125 93.896875 -37.19625 93.79375 -37.8125 93.6875 C-40.33844795 92.89363064 -41.34885407 92.04427591 -43 90 C-43.33 89.01 -43.66 88.02 -44 87 C-46.00121175 84.63493157 -46.96799661 84.0106678 -50 83 C-50 82.01 -50 81.02 -50 80 C-51.65 79.34 -53.3 78.68 -55 78 C-55 77.34 -55 76.68 -55 76 C-55.99 75.67 -56.98 75.34 -58 75 C-61.91854595 69.57103271 -62.71294089 65.23828616 -62.625 58.625 C-62.61807129 57.78155029 -62.61114258 56.93810059 -62.60400391 56.0690918 C-62.36159404 49.16174989 -60.6932026 45.1110905 -56 40 C-54.99524881 38.50317835 -53.99513451 37.00323229 -53 35.5 C-50.81568642 32.58758189 -50.2795778 32.08283787 -46.625 31 C-45.75875 31 -44.8925 31 -44 31 C-43.67 30.01 -43.34 29.02 -43 28 C-38.54285714 24 -38.54285714 24 -36 24 C-36.09023437 23.23945312 -36.18046875 22.47890625 -36.2734375 21.6953125 C-36 19 -36 19 -34.1015625 17.3046875 C-33.28429687 16.83289063 -32.46703125 16.36109375 -31.625 15.875 C-28.44764206 14.00893264 -27.09268459 13.13902689 -25 10 C-24.01 10 -23.02 10 -22 10 C-21.67 8.68 -21.34 7.36 -21 6 C-20.34 6 -19.68 6 -19 6 C-18.731875 5.21625 -18.46375 4.4325 -18.1875 3.625 C-17 1 -17 1 -14 -1 C-9.30038702 -2.65868694 -4.5029978 -1.97057046 0 0 Z " fill="#0D3037" transform="translate(172,31)"/>
<path d="M0 0 C0.56332031 0.36351563 1.12664063 0.72703125 1.70703125 1.1015625 C1.70703125 2.0915625 1.70703125 3.0815625 1.70703125 4.1015625 C-0.93296875 4.4315625 -3.57296875 4.7615625 -6.29296875 5.1015625 C-6.49921875 5.9884375 -6.70546875 6.8753125 -6.91796875 7.7890625 C-8.67601233 12.02434932 -10.64670208 13.40649583 -14.29296875 16.1015625 C-13.96296875 17.0915625 -13.63296875 18.0815625 -13.29296875 19.1015625 C-13.62296875 20.0915625 -13.95296875 21.0815625 -14.29296875 22.1015625 C-14.05318165 25.20771588 -14.05318165 25.20771588 -13.29296875 28.1015625 C-12.63296875 28.4315625 -11.97296875 28.7615625 -11.29296875 29.1015625 C-10.96296875 30.0915625 -10.63296875 31.0815625 -10.29296875 32.1015625 C-9.30296875 32.4315625 -8.31296875 32.7615625 -7.29296875 33.1015625 C-7.29296875 34.7515625 -7.29296875 36.4015625 -7.29296875 38.1015625 C-5.80796875 37.6065625 -5.80796875 37.6065625 -4.29296875 37.1015625 C-3.85984375 37.5965625 -3.42671875 38.0915625 -2.98046875 38.6015625 C-1.29556392 40.43374442 -1.29556392 40.43374442 1.70703125 40.1015625 C2.03703125 41.0915625 2.36703125 42.0815625 2.70703125 43.1015625 C4.68963551 44.78888527 6.69026545 46.45522307 8.70703125 48.1015625 C9.36703125 49.0915625 10.02703125 50.0815625 10.70703125 51.1015625 C11.97546875 52.37 11.97546875 52.37 13.26953125 53.6640625 C15.70703125 56.1015625 15.70703125 56.1015625 16.70703125 58.1015625 C17.36703125 58.1015625 18.02703125 58.1015625 18.70703125 58.1015625 C18.70703125 60.0815625 18.70703125 62.0615625 18.70703125 64.1015625 C19.69703125 62.7815625 20.68703125 61.4615625 21.70703125 60.1015625 C21.70703125 62.0815625 21.70703125 64.0615625 21.70703125 66.1015625 C19.70703125 67.1015625 19.70703125 67.1015625 17.51953125 66.7890625 C13.06696346 67.28379225 10.6080939 69.80548908 7.70703125 73.1015625 C6.69049396 74.80902748 5.71209924 76.5396768 4.76953125 78.2890625 C2.72041705 81.98191058 1.3328251 83.75702662 -2.66796875 85.2265625 C-3.86421875 85.5153125 -5.06046875 85.8040625 -6.29296875 86.1015625 C-6.29296875 87.0915625 -6.29296875 88.0815625 -6.29296875 89.1015625 C-7.26234375 89.6996875 -8.23171875 90.2978125 -9.23046875 90.9140625 C-12.49222607 92.77313296 -12.49222607 92.77313296 -13.10546875 95.7890625 C-13.16734375 96.8821875 -13.22921875 97.9753125 -13.29296875 99.1015625 C-13.47390264 100.72730669 -13.66167926 102.35230055 -13.85546875 103.9765625 C-14.00293358 105.35138848 -14.14933348 106.72633115 -14.29296875 108.1015625 C-13.63296875 108.1015625 -12.97296875 108.1015625 -12.29296875 108.1015625 C-11.96296875 110.4115625 -11.63296875 112.7215625 -11.29296875 115.1015625 C-14.45412651 113.73172747 -15.28567795 113.1124987 -17.29296875 110.1015625 C-17.52001953 108.0168457 -17.52001953 108.0168457 -17.48828125 105.65234375 C-17.48183594 104.80478516 -17.47539062 103.95722656 -17.46875 103.08398438 C-17.45199219 102.20291016 -17.43523438 101.32183594 -17.41796875 100.4140625 C-17.40894531 99.52138672 -17.39992188 98.62871094 -17.390625 97.70898438 C-17.36706623 95.50623936 -17.33417204 93.30403662 -17.29296875 91.1015625 C-16.63296875 91.1015625 -15.97296875 91.1015625 -15.29296875 91.1015625 C-14.96296875 89.7815625 -14.63296875 88.4615625 -14.29296875 87.1015625 C-13.30296875 87.1015625 -12.31296875 87.1015625 -11.29296875 87.1015625 C-11.29296875 86.1115625 -11.29296875 85.1215625 -11.29296875 84.1015625 C-9.80796875 83.6065625 -9.80796875 83.6065625 -8.29296875 83.1015625 C-7.85984375 82.3590625 -7.42671875 81.6165625 -6.98046875 80.8515625 C-4.83531167 77.35575096 -2.57922762 75.54877655 0.70703125 73.1015625 C1.36703125 73.1015625 2.02703125 73.1015625 2.70703125 73.1015625 C3.20203125 71.6165625 3.20203125 71.6165625 3.70703125 70.1015625 C5.64453125 67.9140625 5.64453125 67.9140625 7.70703125 66.1015625 C8.36703125 66.1015625 9.02703125 66.1015625 9.70703125 66.1015625 C10.20203125 64.6165625 10.20203125 64.6165625 10.70703125 63.1015625 C11.36703125 63.1015625 12.02703125 63.1015625 12.70703125 63.1015625 C12.70703125 62.4415625 12.70703125 61.7815625 12.70703125 61.1015625 C12.04703125 61.1015625 11.38703125 61.1015625 10.70703125 61.1015625 C9.26953125 59.16796875 9.26953125 59.16796875 7.70703125 56.6640625 C5.75403965 53.29149599 5.75403965 53.29149599 2.70703125 51.1015625 C2.37703125 50.1115625 2.04703125 49.1215625 1.70703125 48.1015625 C-0.79744391 46.88286321 -0.79744391 46.88286321 -3.29296875 46.1015625 C-3.29296875 45.4415625 -3.29296875 44.7815625 -3.29296875 44.1015625 C-3.87691406 44.01390625 -4.46085938 43.92625 -5.0625 43.8359375 C-7.89505007 42.90332907 -9.03730804 41.59399525 -10.98046875 39.3515625 C-11.58246094 38.67609375 -12.18445313 38.000625 -12.8046875 37.3046875 C-14.44828525 34.87164517 -14.91425636 32.98987569 -15.29296875 30.1015625 C-15.95296875 30.1015625 -16.61296875 30.1015625 -17.29296875 30.1015625 C-17.29296875 24.4915625 -17.29296875 18.8815625 -17.29296875 13.1015625 C-16.63296875 13.1015625 -15.97296875 13.1015625 -15.29296875 13.1015625 C-15.29296875 11.7815625 -15.29296875 10.4615625 -15.29296875 9.1015625 C-14.30296875 8.4415625 -13.31296875 7.7815625 -12.29296875 7.1015625 C-12.15503906 6.44929688 -12.01710938 5.79703125 -11.875 5.125 C-11.29296875 3.1015625 -11.29296875 3.1015625 -9.3671875 1.765625 C-8.57957031 1.42273438 -7.79195312 1.07984375 -6.98046875 0.7265625 C-6.20058594 0.36820313 -5.42070312 0.00984375 -4.6171875 -0.359375 C-2.29296875 -0.8984375 -2.29296875 -0.8984375 0 0 Z M-12.29296875 16.1015625 C-11.96296875 16.7615625 -11.63296875 17.4215625 -11.29296875 18.1015625 C-11.95296875 17.7715625 -12.61296875 17.4415625 -13.29296875 17.1015625 C-12.96296875 16.7715625 -12.63296875 16.4415625 -12.29296875 16.1015625 Z " fill="#183136" transform="translate(17.29296875,27.8984375)"/>
<path d="M0 0 C0.99 1.485 0.99 1.485 2 3 C0.64455078 3.02126953 0.64455078 3.02126953 -0.73828125 3.04296875 C-2.50751953 3.11451172 -2.50751953 3.11451172 -4.3125 3.1875 C-5.48425781 3.22230469 -6.65601563 3.25710937 -7.86328125 3.29296875 C-11.18680453 3.6711072 -11.18680453 3.6711072 -12.73046875 6.48828125 C-13.14941406 7.31714844 -13.56835938 8.14601563 -14 9 C-14.99 9.33 -15.98 9.66 -17 10 C-17.495 10.495 -17.99 10.99 -18.5 11.5 C-20 13 -20 13 -23 14 C-24.33827304 15.66270287 -25.67189785 17.32916181 -27 19 C-27.66 19 -28.32 19 -29 19 C-29.2475 19.53625 -29.495 20.0725 -29.75 20.625 C-31.31855577 23.60525596 -32.96745997 26.30987348 -35 29 C-35.63292969 29.14695313 -36.26585938 29.29390625 -36.91796875 29.4453125 C-39.69812933 30.18599318 -40.62196706 31.48621873 -42.4375 33.6875 C-43.04464844 34.409375 -43.65179688 35.13125 -44.27734375 35.875 C-45.30077536 37.13746438 -46.3167916 38.40609487 -47.31640625 39.6875 C-49.55564871 42.52535183 -51.64921775 44.48938566 -54.6875 46.375 C-57.6662607 48.35004785 -58.58349053 49.84156152 -59.4375 53.3125 C-59.623125 54.529375 -59.80875 55.74625 -60 57 C-59.175 57.433125 -58.35 57.86625 -57.5 58.3125 C-56.675 58.869375 -55.85 59.42625 -55 60 C-55 60.99 -55 61.98 -55 63 C-53.68 63.66 -52.36 64.32 -51 65 C-51.33 67.31 -51.66 69.62 -52 72 C-52.33 71.34 -52.66 70.68 -53 70 C-53.99 69.67 -54.98 69.34 -56 69 C-56 68.01 -56 67.02 -56 66 C-56.598125 65.896875 -57.19625 65.79375 -57.8125 65.6875 C-60.33421352 64.89496146 -61.39685699 64.08408591 -63 62 C-63 61.01 -63 60.02 -63 59 C-64.32 58.67 -65.64 58.34 -67 58 C-67.15645449 48.45627603 -67.15645449 48.45627603 -64.3125 44.875 C-61.53431968 42.62242136 -59.51653861 42.31968533 -56 42 C-55.67 41.01 -55.34 40.02 -55 39 C-54.01 38.505 -54.01 38.505 -53 38 C-52.67 37.175 -52.34 36.35 -52 35.5 C-51 33 -51 33 -49 32 C-48.731875 31.38125 -48.46375 30.7625 -48.1875 30.125 C-46.6028455 27.28930248 -44.90552193 26.38358187 -42 25 C-40.68 25 -39.36 25 -38 25 C-38 23.68 -38 22.36 -38 21 C-36.68 21 -35.36 21 -34 21 C-33.9175 20.278125 -33.835 19.55625 -33.75 18.8125 C-32.31936429 13.44761609 -28.44201291 10.10940904 -24 7 C-22.67139075 6.64830932 -21.33841672 6.31229724 -20 6 C-19.55269531 5.53078125 -19.10539062 5.0615625 -18.64453125 4.578125 C-13.8826519 0.00853057 -6.26302323 -0.6592656 0 0 Z " fill="#113236" transform="translate(94,108)"/>
<path d="M0 0 C0 0.66 0 1.32 0 2 C1.32 2.33 2.64 2.66 4 3 C4 3.66 4 4.32 4 5 C5.32 5.33 6.64 5.66 8 6 C8 6.99 8 7.98 8 9 C8.99 9 9.98 9 11 9 C13.12149527 11.67151256 13.94443003 13.61894879 14.4375 17 C13.9001142 20.68493121 12.51917486 22.32337671 10 25 C8.68 24.34 7.36 23.68 6 23 C6 19.04 6 15.08 6 11 C5.01 10.67 4.02 10.34 3 10 C3 8.68 3 7.36 3 6 C1.02 5.67 -0.96 5.34 -3 5 C-3 4.01 -3 3.02 -3 2 C-11.18186999 2.67064508 -15.14451995 6.37880698 -20.71484375 11.98046875 C-23.21790604 14.90409017 -23.21790604 14.90409017 -24.03515625 18.7109375 C-25 22 -25 22 -27.09375 23.55859375 C-27.8878125 23.84863281 -28.681875 24.13867188 -29.5 24.4375 C-30.2940625 24.74558594 -31.088125 25.05367187 -31.90625 25.37109375 C-34 26 -34 26 -36 26 C-36.26554687 26.58265625 -36.53109375 27.1653125 -36.8046875 27.765625 C-38.03302996 30.06174228 -39.40314939 31.80356018 -41.125 33.75 C-41.93324219 34.67039062 -41.93324219 34.67039062 -42.7578125 35.609375 C-43.37269531 36.29773437 -43.37269531 36.29773437 -44 37 C-46.375 36.6875 -46.375 36.6875 -49 36 C-51 33 -51 33 -51 31 C-51.96113866 29.63838689 -52.95884159 28.30144802 -54 27 C-53.01 27 -52.02 27 -51 27 C-50.34 27.99 -49.68 28.98 -49 30 C-48.01 30 -47.02 30 -46 30 C-45.34 29.01 -44.68 28.02 -44 27 C-43.34 27 -42.68 27 -42 27 C-41.67 26.01 -41.34 25.02 -41 24 C-39.29296875 22.2109375 -39.29296875 22.2109375 -37.1875 20.375 C-36.15689453 19.45847656 -36.15689453 19.45847656 -35.10546875 18.5234375 C-32.98151438 16.9866245 -31.50005186 16.59654166 -29 16 C-28.27095914 14.35965807 -27.61344757 12.68698082 -27 11 C-25.3125 8.5625 -25.3125 8.5625 -23 6 C-22.58621094 5.45601563 -22.17242187 4.91203125 -21.74609375 4.3515625 C-15.981444 -2.06029335 -7.90463812 -0.51242552 0 0 Z " fill="#06292B" transform="translate(138,0)"/>
<path d="M0 0 C1.68441129 0.96981256 3.34588332 1.97937481 5 3 C5.61230469 3.37511719 6.22460938 3.75023437 6.85546875 4.13671875 C11.78657733 7.35973199 11.78657733 7.35973199 12.9375 10.8125 C12.958125 11.534375 12.97875 12.25625 13 13 C13.556875 13.061875 14.11375 13.12375 14.6875 13.1875 C17.93794615 14.32954865 19.61587372 16.55627057 22 19 C24.16620544 20.29519995 24.16620544 20.29519995 26 21 C26 21.66 26 22.32 26 23 C26.66 23 27.32 23 28 23 C28.680625 24.4540625 28.680625 24.4540625 29.375 25.9375 C30.65786221 29.07079582 30.65786221 29.07079582 33 30 C33.5625 32.25 33.5625 32.25 34 35 C34.185625 35.928125 34.37125 36.85625 34.5625 37.8125 C34.706875 38.534375 34.85125 39.25625 35 40 C34.34 40 33.68 40 33 40 C31.4140625 38.171875 31.4140625 38.171875 29.625 35.75 C27.77497157 33.25612908 26.0310757 31.02944014 23.7734375 28.890625 C22 27 22 27 22 24 C21.278125 23.938125 20.55625 23.87625 19.8125 23.8125 C16.15455201 22.75575947 14.43821768 20.76244876 12 18 C11.3090625 17.26523438 10.618125 16.53046875 9.90625 15.7734375 C4 9.38886444 4 9.38886444 4 6 C2.68 6 1.36 6 0 6 C-0.103125 6.598125 -0.20625 7.19625 -0.3125 7.8125 C-1.09824033 10.31258286 -1.96918853 11.37535082 -4 13 C-4.66 13 -5.32 13 -6 13 C-6.268125 13.639375 -6.53625 14.27875 -6.8125 14.9375 C-8 17 -8 17 -11 18 C-11 18.66 -11 19.32 -11 20 C-11.99 20 -12.98 20 -14 20 C-14.33 21.32 -14.66 22.64 -15 24 C-16.65 23.67 -18.3 23.34 -20 23 C-19.34 22.67 -18.68 22.34 -18 22 C-18 21.34 -18 20.68 -18 20 C-17.34 20 -16.68 20 -16 20 C-15.731875 19.030625 -15.46375 18.06125 -15.1875 17.0625 C-14.795625 16.051875 -14.40375 15.04125 -14 14 C-13.01 13.67 -12.02 13.34 -11 13 C-11.33 12.01 -11.66 11.02 -12 10 C-11.195625 9.71125 -10.39125 9.4225 -9.5625 9.125 C-6.8673532 8.26737432 -6.8673532 8.26737432 -6 6 C-5.34 6 -4.68 6 -4 6 C-4 5.34 -4 4.68 -4 4 C-3.34 4 -2.68 4 -2 4 C-2 3.34 -2 2.68 -2 2 C-1.34 2 -0.68 2 0 2 C0 1.34 0 0.68 0 0 Z " fill="#0D2628" transform="translate(88,140)"/>
<path d="M0 0 C0.56332031 0.36351563 1.12664063 0.72703125 1.70703125 1.1015625 C1.70703125 2.0915625 1.70703125 3.0815625 1.70703125 4.1015625 C-0.93296875 4.4315625 -3.57296875 4.7615625 -6.29296875 5.1015625 C-6.49921875 5.9884375 -6.70546875 6.8753125 -6.91796875 7.7890625 C-8.67601233 12.02434932 -10.64670208 13.40649583 -14.29296875 16.1015625 C-13.96296875 17.0915625 -13.63296875 18.0815625 -13.29296875 19.1015625 C-13.62296875 20.0915625 -13.95296875 21.0815625 -14.29296875 22.1015625 C-14.05318165 25.20771588 -14.05318165 25.20771588 -13.29296875 28.1015625 C-12.63296875 28.4315625 -11.97296875 28.7615625 -11.29296875 29.1015625 C-10.96296875 30.0915625 -10.63296875 31.0815625 -10.29296875 32.1015625 C-9.30296875 32.4315625 -8.31296875 32.7615625 -7.29296875 33.1015625 C-7.29296875 34.7515625 -7.29296875 36.4015625 -7.29296875 38.1015625 C-5.80796875 37.6065625 -5.80796875 37.6065625 -4.29296875 37.1015625 C-3.85984375 37.5965625 -3.42671875 38.0915625 -2.98046875 38.6015625 C-1.29556392 40.43374442 -1.29556392 40.43374442 1.70703125 40.1015625 C2.03703125 41.0915625 2.36703125 42.0815625 2.70703125 43.1015625 C3.69703125 43.9678125 3.69703125 43.9678125 4.70703125 44.8515625 C7.34283747 47.8168445 7.40843166 50.21976781 7.70703125 54.1015625 C8.36703125 54.1015625 9.02703125 54.1015625 9.70703125 54.1015625 C10.03703125 55.0915625 10.36703125 56.0815625 10.70703125 57.1015625 C12.19203125 57.5965625 12.19203125 57.5965625 13.70703125 58.1015625 C14.5078125 60.26953125 14.5078125 60.26953125 14.70703125 63.1015625 C12.6875 65.77734375 12.6875 65.77734375 9.89453125 68.4140625 C8.98058594 69.29707031 8.06664063 70.18007812 7.125 71.08984375 C4.70703125 73.1015625 4.70703125 73.1015625 2.70703125 73.1015625 C3.82708756 69.74139357 5.07914922 68.41091337 7.70703125 66.1015625 C8.36703125 66.1015625 9.02703125 66.1015625 9.70703125 66.1015625 C10.20203125 64.6165625 10.20203125 64.6165625 10.70703125 63.1015625 C11.36703125 63.1015625 12.02703125 63.1015625 12.70703125 63.1015625 C12.70703125 62.4415625 12.70703125 61.7815625 12.70703125 61.1015625 C12.04703125 61.1015625 11.38703125 61.1015625 10.70703125 61.1015625 C9.26953125 59.16796875 9.26953125 59.16796875 7.70703125 56.6640625 C5.75403965 53.29149599 5.75403965 53.29149599 2.70703125 51.1015625 C2.37703125 50.1115625 2.04703125 49.1215625 1.70703125 48.1015625 C-0.79744391 46.88286321 -0.79744391 46.88286321 -3.29296875 46.1015625 C-3.29296875 45.4415625 -3.29296875 44.7815625 -3.29296875 44.1015625 C-3.87691406 44.01390625 -4.46085938 43.92625 -5.0625 43.8359375 C-7.89505007 42.90332907 -9.03730804 41.59399525 -10.98046875 39.3515625 C-11.58246094 38.67609375 -12.18445313 38.000625 -12.8046875 37.3046875 C-14.44828525 34.87164517 -14.91425636 32.98987569 -15.29296875 30.1015625 C-15.95296875 30.1015625 -16.61296875 30.1015625 -17.29296875 30.1015625 C-17.29296875 24.4915625 -17.29296875 18.8815625 -17.29296875 13.1015625 C-16.63296875 13.1015625 -15.97296875 13.1015625 -15.29296875 13.1015625 C-15.29296875 11.7815625 -15.29296875 10.4615625 -15.29296875 9.1015625 C-14.30296875 8.4415625 -13.31296875 7.7815625 -12.29296875 7.1015625 C-12.15503906 6.44929688 -12.01710938 5.79703125 -11.875 5.125 C-11.29296875 3.1015625 -11.29296875 3.1015625 -9.3671875 1.765625 C-8.57957031 1.42273438 -7.79195312 1.07984375 -6.98046875 0.7265625 C-6.20058594 0.36820313 -5.42070312 0.00984375 -4.6171875 -0.359375 C-2.29296875 -0.8984375 -2.29296875 -0.8984375 0 0 Z M-12.29296875 16.1015625 C-11.96296875 16.7615625 -11.63296875 17.4215625 -11.29296875 18.1015625 C-11.95296875 17.7715625 -12.61296875 17.4415625 -13.29296875 17.1015625 C-12.96296875 16.7715625 -12.63296875 16.4415625 -12.29296875 16.1015625 Z " fill="#0C2228" transform="translate(17.29296875,27.8984375)"/>
<path d="M0 0 C1.125 3.75 1.125 3.75 0 6 C-0.99 6 -1.98 6 -3 6 C-3.04125 6.5775 -3.0825 7.155 -3.125 7.75 C-4.46262649 11.18961098 -6.85957625 12.2413627 -10 14 C-10.99 14 -11.98 14 -13 14 C-13.103125 14.78375 -13.20625 15.5675 -13.3125 16.375 C-14 19 -14 19 -17 21 C-17.33 21.99 -17.66 22.98 -18 24 C-18.99 24 -19.98 24 -21 24 C-21.33 24.99 -21.66 25.98 -22 27 C-23.64821244 28.03013277 -25.31503702 29.03114628 -27 30 C-27.33 30.66 -27.66 31.32 -28 32 C-28.99 32 -29.98 32 -31 32 C-31.33 32.99 -31.66 33.98 -32 35 C-32.3125 31.8125 -32.3125 31.8125 -32 28 C-29.8125 25.375 -29.8125 25.375 -27 23 C-26.13375 22.071875 -25.2675 21.14375 -24.375 20.1875 C-22 18 -22 18 -19 18 C-18.62875 16.6078125 -18.62875 16.6078125 -18.25 15.1875 C-16.93473367 11.83357085 -16.16736868 10.63167477 -13 9 C-12.01 9.33 -11.02 9.66 -10 10 C-10 8.68 -10 7.36 -10 6 C-9.278125 5.938125 -8.55625 5.87625 -7.8125 5.8125 C-4.15342375 4.75543353 -2.50788398 2.79449929 0 0 Z " fill="#314445" transform="translate(69,97)"/>
<path d="M0 0 C0.66 0.33 1.32 0.66 2 1 C2 1.99 2 2.98 2 4 C2.556875 4.061875 3.11375 4.12375 3.6875 4.1875 C7.027159 5.3608937 8.71500747 7.34446814 11 10 C11.8125 12.3125 11.8125 12.3125 12 14 C13.32 14 14.64 14 16 14 C16.33 14.99 16.66 15.98 17 17 C19.00121175 19.36506843 19.96799661 19.9893322 23 21 C25.6875 23.4375 25.6875 23.4375 28 26 C28 26.66 28 27.32 28 28 C28.66 28 29.32 28 30 28 C30 29.32 30 30.64 30 32 C27.03 32.495 27.03 32.495 24 33 C23.34 31.35 22.68 29.7 22 28 C21.01 28 20.02 28 19 28 C18.79375 26.88625 18.5875 25.7725 18.375 24.625 C17.38371699 20.73400805 17.38371699 20.73400805 13.875 19.5625 C12.92625 19.376875 11.9775 19.19125 11 19 C11 17.68 11 16.36 11 15 C8.03 14.505 8.03 14.505 5 14 C5 13.01 5 12.02 5 11 C4.34 11 3.68 11 3 11 C3 10.01 3 9.02 3 8 C2.34 8 1.68 8 1 8 C0.26919734 6.02253397 -0.39421747 4.01927511 -1 2 C-0.67 1.34 -0.34 0.68 0 0 Z " fill="#264043" transform="translate(108,115)"/>
<path d="M0 0 C4.29 0 8.58 0 13 0 C13 0.66 13 1.32 13 2 C14.32 2.33 15.64 2.66 17 3 C17 3.66 17 4.32 17 5 C18.32 5.33 19.64 5.66 21 6 C21 6.99 21 7.98 21 9 C21.99 9 22.98 9 24 9 C26.12149527 11.67151256 26.94443003 13.61894879 27.4375 17 C26.9001142 20.68493121 25.51917486 22.32337671 23 25 C21.68 24.34 20.36 23.68 19 23 C19 19.04 19 15.08 19 11 C18.01 10.67 17.02 10.34 16 10 C16 8.68 16 7.36 16 6 C13.03 5.505 13.03 5.505 10 5 C10 4.01 10 3.02 10 2 C3.03562051 2.91595014 -1.0886122 4.97806649 -6 10 C-5.34 7.69 -4.68 5.38 -4 3 C-2.68 2.67 -1.36 2.34 0 2 C0 1.34 0 0.68 0 0 Z " fill="#192D32" transform="translate(125,0)"/>
<path d="M0 0 C0.556875 0.28875 1.11375 0.5775 1.6875 0.875 C4.08494645 2.0413253 6.51596939 3.0339881 9 4 C9 4.66 9 5.32 9 6 C9.99 6 10.98 6 12 6 C12.99 7.485 12.99 7.485 14 9 C14.78375 9.2475 15.5675 9.495 16.375 9.75 C20.1604634 11.55260162 21.22885319 14.33395813 23 18 C23.24878906 18.71671875 23.49757813 19.4334375 23.75390625 20.171875 C24.89628895 22.27839965 24.89628895 22.27839965 27.609375 22.6796875 C33.2858291 23.03270081 37.64283807 23.19781002 43 21 C43.99 21.33 44.98 21.66 46 22 C44.68 22.33 43.36 22.66 42 23 C42 23.66 42 24.32 42 25 C36.72 25 31.44 25 26 25 C26 24.34 26 23.68 26 23 C24.88625 22.731875 23.7725 22.46375 22.625 22.1875 C19 21 19 21 17 18 C16.154375 17.505 15.30875 17.01 14.4375 16.5 C12 15 12 15 11 12 C8.99983534 10.79117904 8.99983534 10.79117904 7 10 C7 9.01 7 8.02 7 7 C6.01 7 5.02 7 4 7 C4 6.01 4 5.02 4 4 C2.68 3.67 1.36 3.34 0 3 C0 2.01 0 1.02 0 0 Z " fill="#123134" transform="translate(56,47)"/>
<path d="M0 0 C0 1.32 0 2.64 0 4 C-4.07142857 7 -4.07142857 7 -7 7 C-7 7.66 -7 8.32 -7 9 C-7.66 9 -8.32 9 -9 9 C-8.67 10.98 -8.34 12.96 -8 15 C-9.1446875 15.8971875 -9.1446875 15.8971875 -10.3125 16.8125 C-11.199375 17.534375 -12.08625 18.25625 -13 19 C-13.53625 19.4021875 -14.0725 19.804375 -14.625 20.21875 C-16.69646331 22.90223656 -16.52224409 25.34933071 -16.6875 28.6875 C-16.78611328 30.45673828 -16.78611328 30.45673828 -16.88671875 32.26171875 C-16.94279297 33.61716797 -16.94279297 33.61716797 -17 35 C-16.34 35 -15.68 35 -15 35 C-14.67 37.31 -14.34 39.62 -14 42 C-17.16115776 40.63016497 -17.9927092 40.0109362 -20 37 C-20.22705078 34.9152832 -20.22705078 34.9152832 -20.1953125 32.55078125 C-20.18886719 31.70322266 -20.18242187 30.85566406 -20.17578125 29.98242188 C-20.15902344 29.10134766 -20.14226563 28.22027344 -20.125 27.3125 C-20.11597656 26.41982422 -20.10695313 25.52714844 -20.09765625 24.60742188 C-20.07409748 22.40467686 -20.04120329 20.20247412 -20 18 C-19.34 18 -18.68 18 -18 18 C-17.67 16.68 -17.34 15.36 -17 14 C-16.01 14 -15.02 14 -14 14 C-14 13.01 -14 12.02 -14 11 C-13.01 10.67 -12.02 10.34 -11 10 C-10.3503125 8.88625 -10.3503125 8.88625 -9.6875 7.75 C-7.59975552 4.34774973 -4.30244021 0 0 0 Z " fill="#142E33" transform="translate(20,101)"/>
<path d="M0 0 C0.33 0 0.66 0 1 0 C2.14507772 5.19689119 2.14507772 5.19689119 2 8 C-0.4375 11 -0.4375 11 -3 13 C-3.33 12.34 -3.66 11.68 -4 11 C-5.64826111 13.96687001 -6.44271087 16.65626525 -7 20 C-7.66 20 -8.32 20 -9 20 C-7.16172132 23.15133488 -5.24027294 26.11964908 -3 29 C-6.23490776 28.44225728 -7.97855006 27.62788492 -10 25 C-10 24.01 -10 23.02 -10 22 C-11.32 21.67 -12.64 21.34 -14 21 C-13.81045025 12.12562535 -13.81045025 12.12562535 -10.75 7.875 C-7.79064463 5.8572577 -6.49411815 5.50084026 -3 6 C-2.67 4.68 -2.34 3.36 -2 2 C-1.34 2 -0.68 2 0 2 C0 1.34 0 0.68 0 0 Z " fill="#0F3438" transform="translate(41,0)"/>
<path d="M0 0 C2 1 4 2 6 3 C7.14611049 8.94313744 8.01596154 15.54254578 5 21 C2.875 22.375 2.875 22.375 1 23 C1 23.66 1 24.32 1 25 C0.34 25 -0.32 25 -1 25 C-1.04254356 23.00045254 -1.04080783 20.99958364 -1 19 C-0.67 18.67 -0.34 18.34 0 18 C-0.66 17.01 -1.32 16.02 -2 15 C-2.36867303 9.4699046 -1.74558018 5.23674055 0 0 Z " fill="#33494C" transform="translate(64,77)"/>
<path d="M0 0 C1.9375 0.375 1.9375 0.375 4 1 C4.33 1.66 4.66 2.32 5 3 C7.01669827 4.13350534 7.01669827 4.13350534 9 5 C9 6.32 9 7.64 9 9 C9.99 9 10.98 9 12 9 C12 9.66 12 10.32 12 11 C12.66 11 13.32 11 14 11 C14.66 13.31 15.32 15.62 16 18 C16.969375 18.12375 17.93875 18.2475 18.9375 18.375 C20.4534375 18.684375 20.4534375 18.684375 22 19 C22.33 19.66 22.66 20.32 23 21 C23.99 21.33 24.98 21.66 26 22 C26 22.99 26 23.98 26 25 C27.32 25.33 28.64 25.66 30 26 C29.67 26.61875 29.34 27.2375 29 27.875 C27.85806765 29.91018344 27.85806765 29.91018344 28 32 C25 31 25 31 23.1875 28.6875 C21.07483819 25.81413227 21.07483819 25.81413227 17.75 23.875 C16.8425 23.25625 15.935 22.6375 15 22 C15 21.01 15 20.02 15 19 C13.68 18.67 12.36 18.34 11 18 C11 15.69 11 13.38 11 11 C9.68 10.34 8.36 9.68 7 9 C7 7.68 7 6.36 7 5 C6.21625 4.9175 5.4325 4.835 4.625 4.75 C2 4 2 4 0.6875 1.9375 C0.460625 1.298125 0.23375 0.65875 0 0 Z " fill="#0C1D21" transform="translate(121,106)"/>
<path d="M0 0 C-1.3125 1.5 -1.3125 1.5 -3 3 C-3.99 3 -4.98 3 -6 3 C-6.66 6.96 -7.32 10.92 -8 15 C-6.02 15 -4.04 15 -2 15 C-1.01 15.66 -0.02 16.32 1 17 C1 17.99 1 18.98 1 20 C2.32 20.66 3.64 21.32 5 22 C4.67 24.31 4.34 26.62 4 29 C3.67 28.34 3.34 27.68 3 27 C2.01 26.67 1.02 26.34 0 26 C0 25.01 0 24.02 0 23 C-0.598125 22.896875 -1.19625 22.79375 -1.8125 22.6875 C-4.33421352 21.89496146 -5.39685699 21.08408591 -7 19 C-7 18.01 -7 17.02 -7 16 C-8.32 15.67 -9.64 15.34 -11 15 C-11.15806988 5.3577371 -11.15806988 5.3577371 -8.1875 1.875 C-5.37627474 -0.53462165 -3.44661262 -1.72330631 0 0 Z " fill="#1A2D2F" transform="translate(38,151)"/>
<path d="M0 0 C1.32 0.66 2.64 1.32 4 2 C2.68 2.33 1.36 2.66 0 3 C0.33 3.99 0.66 4.98 1 6 C-0.7818227 9.84498583 -2.28589926 11.20285448 -6 13 C-6.68268138 14.32520503 -7.3507041 15.65812182 -8 17 C-8.99 17.33 -9.98 17.66 -11 18 C-11 18.66 -11 19.32 -11 20 C-11.99 20 -12.98 20 -14 20 C-14.33 21.32 -14.66 22.64 -15 24 C-16.65 23.67 -18.3 23.34 -20 23 C-19.34 22.67 -18.68 22.34 -18 22 C-18 21.34 -18 20.68 -18 20 C-17.34 20 -16.68 20 -16 20 C-15.731875 19.030625 -15.46375 18.06125 -15.1875 17.0625 C-14.795625 16.051875 -14.40375 15.04125 -14 14 C-13.01 13.67 -12.02 13.34 -11 13 C-11.33 12.01 -11.66 11.02 -12 10 C-11.195625 9.71125 -10.39125 9.4225 -9.5625 9.125 C-6.8673532 8.26737432 -6.8673532 8.26737432 -6 6 C-5.34 6 -4.68 6 -4 6 C-4 5.34 -4 4.68 -4 4 C-3.34 4 -2.68 4 -2 4 C-2 3.34 -2 2.68 -2 2 C-1.34 2 -0.68 2 0 2 C0 1.34 0 0.68 0 0 Z " fill="#173639" transform="translate(88,140)"/>
<path d="M0 0 C0.56332031 0.36351563 1.12664063 0.72703125 1.70703125 1.1015625 C1.70703125 2.0915625 1.70703125 3.0815625 1.70703125 4.1015625 C-0.93296875 4.4315625 -3.57296875 4.7615625 -6.29296875 5.1015625 C-6.49921875 5.9884375 -6.70546875 6.8753125 -6.91796875 7.7890625 C-8.67601233 12.02434932 -10.64670208 13.40649583 -14.29296875 16.1015625 C-13.96296875 17.0915625 -13.63296875 18.0815625 -13.29296875 19.1015625 C-13.57066783 21.442169 -13.89836852 23.77780558 -14.29296875 26.1015625 C-15.28296875 26.4315625 -16.27296875 26.7615625 -17.29296875 27.1015625 C-17.29296875 22.4815625 -17.29296875 17.8615625 -17.29296875 13.1015625 C-16.63296875 13.1015625 -15.97296875 13.1015625 -15.29296875 13.1015625 C-15.29296875 11.7815625 -15.29296875 10.4615625 -15.29296875 9.1015625 C-14.30296875 8.4415625 -13.31296875 7.7815625 -12.29296875 7.1015625 C-12.15503906 6.44929688 -12.01710938 5.79703125 -11.875 5.125 C-11.29296875 3.1015625 -11.29296875 3.1015625 -9.3671875 1.765625 C-8.57957031 1.42273438 -7.79195312 1.07984375 -6.98046875 0.7265625 C-6.20058594 0.36820313 -5.42070312 0.00984375 -4.6171875 -0.359375 C-2.29296875 -0.8984375 -2.29296875 -0.8984375 0 0 Z M-12.29296875 16.1015625 C-11.96296875 16.7615625 -11.63296875 17.4215625 -11.29296875 18.1015625 C-11.95296875 17.7715625 -12.61296875 17.4415625 -13.29296875 17.1015625 C-12.96296875 16.7715625 -12.63296875 16.4415625 -12.29296875 16.1015625 Z " fill="#081D29" transform="translate(17.29296875,27.8984375)"/>
<path d="M0 0 C2.19507699 2.20014645 3.43262633 4.26973619 5 7 C3.68 6.67 2.36 6.34 1 6 C1 5.34 1 4.68 1 4 C-2.74332913 1.99464511 -5.73676315 1 -10 1 C-10.33 2.98 -10.66 4.96 -11 7 C-11.99 7.33 -12.98 7.66 -14 8 C-14.33 8.66 -14.66 9.32 -15 10 C-17.50390625 10.8515625 -17.50390625 10.8515625 -20.5625 11.625 C-21.57441406 11.88539062 -22.58632812 12.14578125 -23.62890625 12.4140625 C-24.41136719 12.60742188 -25.19382813 12.80078125 -26 13 C-25.67 12.01 -25.34 11.02 -25 10 C-24.01 10 -23.02 10 -22 10 C-21.67 8.68 -21.34 7.36 -21 6 C-20.34 6 -19.68 6 -19 6 C-18.731875 5.21625 -18.46375 4.4325 -18.1875 3.625 C-17 1 -17 1 -14 -1 C-9.30038702 -2.65868694 -4.5029978 -1.97057046 0 0 Z " fill="#123135" transform="translate(172,31)"/>
<path d="M0 0 C1.32 0.33 2.64 0.66 4 1 C4 1.66 4 2.32 4 3 C5.32 3.33 6.64 3.66 8 4 C8 4.99 8 5.98 8 7 C8.61875 7.0825 9.2375 7.165 9.875 7.25 C12 8 12 8 13.25 9.6875 C14.22696861 12.69981988 14.38625228 14.84560642 14 18 C12 20.875 12 20.875 10 23 C8.66666667 22.33333333 7.33333333 21.66666667 6 21 C6 15.72 6 10.44 6 5 C4.68 4.67 3.36 4.34 2 4 C2 3.34 2 2.68 2 2 C1.34 2 0.68 2 0 2 C0 1.34 0 0.68 0 0 Z " fill="#2D3839" transform="translate(138,147)"/>
<path d="M0 0 C0.33 0.66 0.66 1.32 1 2 C1.66 2 2.32 2 3 2 C3.4125 2.94875 3.825 3.8975 4.25 4.875 C6.13167059 8.23512605 6.73141601 8.46785125 10 10 C10.474375 10.825 10.94875 11.65 11.4375 12.5 C12.78524528 15.2101385 12.78524528 15.2101385 15.5625 16 C18 17 18 17 19.125 19.4375 C19.41375 20.283125 19.7025 21.12875 20 22 C21.52007842 23.77277259 21.52007842 23.77277259 23 25 C22.34 25.99 21.68 26.98 21 28 C19 27 19 27 18 24 C15.99878825 21.63493157 15.03200339 21.0106678 12 20 C12 19.01 12 18.02 12 17 C9.525 16.01 9.525 16.01 7 15 C7 14.34 7 13.68 7 13 C6.01 12.67 5.02 12.34 4 12 C1.22939021 7.88366546 -0.6175196 5.09453672 0 0 Z " fill="#051C1E" transform="translate(110,94)"/>
<path d="M0 0 C0.66 0.33 1.32 0.66 2 1 C1.5625 3.25 1.5625 3.25 0 6 C-3.3380787 7.97508248 -7.06212362 10 -11 10 C-10.67 9.01 -10.34 8.02 -10 7 C-8.68 7 -7.36 7 -6 7 C-5.67 6.01 -5.34 5.02 -5 4 C-4.34 4 -3.68 4 -3 4 C-3 3.34 -3 2.68 -3 2 C-2.01 1.34 -1.02 0.68 0 0 Z M-13 10 C-12.34 10 -11.68 10 -11 10 C-12.36370299 12.99220268 -13.94908083 15.29026529 -16.125 17.75 C-16.93324219 18.67039062 -16.93324219 18.67039062 -17.7578125 19.609375 C-18.37269531 20.29773438 -18.37269531 20.29773438 -19 21 C-21.375 20.6875 -21.375 20.6875 -24 20 C-26 17 -26 17 -26 15 C-26.96113866 13.63838689 -27.95884159 12.30144802 -29 11 C-28.01 11 -27.02 11 -26 11 C-25.34 11.99 -24.68 12.98 -24 14 C-23.278125 13.855625 -22.55625 13.71125 -21.8125 13.5625 C-19.96519293 13.19303859 -18.11049361 12.85848762 -16.25 12.5625 C-15.13625 12.2840625 -15.13625 12.2840625 -14 12 C-13.67 11.34 -13.34 10.68 -13 10 Z " fill="#10393F" transform="translate(113,16)"/>
<path d="M0 0 C2.92351542 2.17175431 5.40299171 4.3658603 7.6875 7.1875 C9.69390251 10.01647233 9.69390251 10.01647233 12 11 C12 11.99 12 12.98 12 14 C13.32 14.33 14.64 14.66 16 15 C15.67 15.99 15.34 16.98 15 18 C13.02 18 11.04 18 9 18 C9 17.01 9 16.02 9 15 C8.360625 14.87625 7.72125 14.7525 7.0625 14.625 C6.381875 14.41875 5.70125 14.2125 5 14 C4.67 13.34 4.34 12.68 4 12 C3.01 11.67 2.02 11.34 1 11 C0.67 7.37 0.34 3.74 0 0 Z " fill="#27373D" transform="translate(36,44)"/>
<path d="M0 0 C4 0 4 0 5.5625 1.5 C6.036875 1.995 6.51125 2.49 7 3 C7.99 3 8.98 3 10 3 C10 3.66 10 4.32 10 5 C13.4404556 8.82343721 13.4404556 8.82343721 18 11 C19.1875 13.5625 19.1875 13.5625 20 16 C17 17 17 17 14.375 15.8125 C12 14 12 14 11.1875 11.8125 C11.125625 11.214375 11.06375 10.61625 11 10 C10.01 10 9.02 10 8 10 C7.67 9.34 7.34 8.68 7 8 C6.01 7.67 5.02 7.34 4 7 C3.67 6.01 3.34 5.02 3 4 C2.01 3.34 1.02 2.68 0 2 C0 1.34 0 0.68 0 0 Z " fill="#132D2F" transform="translate(38,30)"/>
<path d="M0 0 C2.01474498 0 4.02863522 0.1181687 6.0390625 0.25 C5.7090625 1.24 5.3790625 2.23 5.0390625 3.25 C4.0490625 3.25 3.0590625 3.25 2.0390625 3.25 C1.9153125 3.889375 1.7915625 4.52875 1.6640625 5.1875 C1.4578125 5.868125 1.2515625 6.54875 1.0390625 7.25 C0.0490625 7.745 0.0490625 7.745 -0.9609375 8.25 C-1.2909375 9.24 -1.6209375 10.23 -1.9609375 11.25 C-3.2809375 11.25 -4.6009375 11.25 -5.9609375 11.25 C-6.2909375 12.24 -6.6209375 13.23 -6.9609375 14.25 C-7.6209375 14.25 -8.2809375 14.25 -8.9609375 14.25 C-9.2909375 12.27 -9.6209375 10.29 -9.9609375 8.25 C-9.1978125 7.6725 -8.4346875 7.095 -7.6484375 6.5 C-4.92240442 4.47590388 -4.92240442 4.47590388 -3.6484375 2 C-1.9609375 0.25 -1.9609375 0.25 0 0 Z " fill="#314042" transform="translate(139.9609375,25.75)"/>
<path d="M0 0 C0.33 0 0.66 0 1 0 C1.07347656 1.66675781 1.07347656 1.66675781 1.1484375 3.3671875 C1.53916919 11.39568598 2.01905545 19.17238416 4 27 C2 25.1875 2 25.1875 0 23 C0 22.01 0 21.02 0 20 C-0.66 20 -1.32 20 -2 20 C-3.46961466 17.06077067 -3.20919862 14.39591028 -3.25 11.125 C-3.27578125 9.89007813 -3.3015625 8.65515625 -3.328125 7.3828125 C-2.98568874 3.85245769 -2.4681245 2.48058978 0 0 Z " fill="#0A2428" transform="translate(113,76)"/>
<path d="M0 0 C1.66666667 1.66666667 3.33333333 3.33333333 5 5 C7.17346568 5.86119134 7.17346568 5.86119134 9 6 C9 6.99 9 7.98 9 9 C9.66 9 10.32 9 11 9 C11 10.65 11 12.3 11 14 C10.01 13.67 9.02 13.34 8 13 C7.67 12.01 7.34 11.02 7 10 C5.35 9.67 3.7 9.34 2 9 C1.67 8.01 1.34 7.02 1 6 C-0.65 6 -2.3 6 -4 6 C-4 4.68 -4 3.36 -4 2 C-4.99 2 -5.98 2 -7 2 C-7 1.34 -7 0.68 -7 0 C-3.76820321 -1.0772656 -3.05133626 -1.25643258 0 0 Z " fill="#2A393D" transform="translate(169,32)"/>
<path d="M0 0 C0.99 0.33 1.98 0.66 3 1 C3.1875 3.375 3.1875 3.375 3 6 C0 8 0 8 -3 8 C-3.33 8.99 -3.66 9.98 -4 11 C-6.64 11 -9.28 11 -12 11 C-11.9375 9.25 -11.9375 9.25 -11 7 C-9.29390048 5.80830235 -7.5480548 4.86770201 -5.69140625 3.9296875 C-3.81434849 3.00039225 -3.81434849 3.00039225 -2 1 C-1.34 1.33 -0.68 1.66 0 2 C0 1.34 0 0.68 0 0 Z " fill="#475758" transform="translate(177,135)"/>
<path d="M0 0 C0.33 0.66 0.66 1.32 1 2 C1.99 2 2.98 2 4 2 C3.67 2.66 3.34 3.32 3 4 C2.01 4.33 1.02 4.66 0 5 C-0.99 6.485 -0.99 6.485 -2 8 C-4.125 9.1875 -4.125 9.1875 -6 10 C-6 11.32 -6 12.64 -6 14 C-5.34 14.66 -4.68 15.32 -4 16 C-5.32 15.67 -6.64 15.34 -8 15 C-8 14.34 -8 13.68 -8 13 C-8.66 13 -9.32 13 -10 13 C-10 11.35 -10 9.7 -10 8 C-9.34 7.67 -8.68 7.34 -8 7 C-7.34227572 3.97065509 -7.34227572 3.97065509 -7 1 C-4 0 -4 0 0 0 Z " fill="#313E40" transform="translate(156,78)"/>
<path d="M0 0 C0.66 0 1.32 0 2 0 C2 0.99 2 1.98 2 3 C2.99 3.33 3.98 3.66 5 4 C5.0825 4.78375 5.165 5.5675 5.25 6.375 C5.70626328 9.07713392 5.70626328 9.07713392 7.6875 10.0625 C8.450625 10.371875 9.21375 10.68125 10 11 C13.25 13 13.25 13 16 15 C16 15.66 16 16.32 16 17 C11.25 18.125 11.25 18.125 9 17 C8.71125 16.360625 8.4225 15.72125 8.125 15.0625 C6.75418308 12.54933564 5.60691 12.05905719 3 11 C2.34 10.67 1.68 10.34 1 10 C1 8.68 1 7.36 1 6 C0.34 6 -0.32 6 -1 6 C-0.67 4.02 -0.34 2.04 0 0 Z " fill="#10191C" transform="translate(68,10)"/>
<path d="M0 0 C1.875 0.8125 1.875 0.8125 2.875 2.8125 C3.865 3.1425 4.855 3.4725 5.875 3.8125 C5.875 4.8025 5.875 5.7925 5.875 6.8125 C6.865 6.8125 7.855 6.8125 8.875 6.8125 C9.205 7.8025 9.535 8.7925 9.875 9.8125 C10.865 10.4725 11.855 11.1325 12.875 11.8125 C12.875 12.4725 12.875 13.1325 12.875 13.8125 C10.895 13.8125 8.915 13.8125 6.875 13.8125 C6.545 13.1525 6.215 12.4925 5.875 11.8125 C6.205 11.1525 6.535 10.4925 6.875 9.8125 C5.225 9.4825 3.575 9.1525 1.875 8.8125 C1.545 7.8225 1.215 6.8325 0.875 5.8125 C-0.115 6.1425 -1.105 6.4725 -2.125 6.8125 C-2.455 5.8225 -2.785 4.8325 -3.125 3.8125 C-3.785 3.4825 -4.445 3.1525 -5.125 2.8125 C-2.68543956 -0.23695055 -2.68543956 -0.23695055 0 0 Z " fill="#254145" transform="translate(154.125,94.1875)"/>
<path d="M0 0 C3.875 2.625 3.875 2.625 5 6 C5.99 6.33 6.98 6.66 8 7 C8 8.98 8 10.96 8 13 C8.99 13.33 9.98 13.66 11 14 C11.6875 16.0625 11.6875 16.0625 12 18 C8.29046056 17.44315964 6.74024157 16.05164536 4.3125 13.25 C3.71050781 12.57453125 3.10851562 11.8990625 2.48828125 11.203125 C0.8446835 8.77008267 0.37871239 6.88831319 0 4 C-0.66 4 -1.32 4 -2 4 C-2 3.01 -2 2.02 -2 1 C-1.34 0.67 -0.68 0.34 0 0 Z " fill="#092627" transform="translate(2,54)"/>
<path d="M0 0 C2.475 0.99 2.475 0.99 5 2 C4.01 2.33 3.02 2.66 2 3 C1.67 3.99 1.34 4.98 1 6 C-0.55859375 7.38671875 -0.55859375 7.38671875 -2.4375 8.6875 C-3.36369141 9.34298828 -3.36369141 9.34298828 -4.30859375 10.01171875 C-6 11 -6 11 -8 11 C-8.33 11.99 -8.66 12.98 -9 14 C-9.79953138 10.71303767 -10.09658936 9.28976808 -9 6 C-8.01 6 -7.02 6 -6 6 C-5.67 4.68 -5.34 3.36 -5 2 C-3.35 2 -1.7 2 0 2 C0 1.34 0 0.68 0 0 Z " fill="#333B3C" transform="translate(118,48)"/>
<path d="M0 0 C0 1.32 0 2.64 0 4 C-4.07142857 7 -4.07142857 7 -7 7 C-7 7.66 -7 8.32 -7 9 C-7.66 9 -8.32 9 -9 9 C-9.04125 9.928125 -9.0825 10.85625 -9.125 11.8125 C-10 15 -10 15 -12.9375 16.875 C-16 18 -16 18 -18 18 C-17.67 16.68 -17.34 15.36 -17 14 C-16.01 14 -15.02 14 -14 14 C-14 13.01 -14 12.02 -14 11 C-13.01 10.67 -12.02 10.34 -11 10 C-10.566875 9.2575 -10.13375 8.515 -9.6875 7.75 C-7.59975552 4.34774973 -4.30244021 0 0 0 Z " fill="#000001" transform="translate(20,101)"/>
<path d="M0 0 C1.125 3.75 1.125 3.75 0 6 C-0.99 6 -1.98 6 -3 6 C-3.04125 6.5775 -3.0825 7.155 -3.125 7.75 C-4.47957626 11.23319609 -6.77732812 12.29387959 -10 14 C-12.375 13.75 -12.375 13.75 -14 13 C-13.67 12.01 -13.34 11.02 -13 10 C-12.01 10 -11.02 10 -10 10 C-10 8.68 -10 7.36 -10 6 C-8.9171875 5.9071875 -8.9171875 5.9071875 -7.8125 5.8125 C-4.15342375 4.75543353 -2.50788398 2.79449929 0 0 Z " fill="#274041" transform="translate(69,97)"/>
<path d="M0 0 C0.66 0.33 1.32 0.66 2 1 C0.75023244 4.65316671 0.32901247 5.78065836 -3 8 C-4.99571323 8.67939174 -6.99594773 9.34561559 -9 10 C-11.67768308 11.0413212 -12.70585596 11.47707726 -14.125 14 C-14.41375 14.66 -14.7025 15.32 -15 16 C-15.66 16.66 -16.32 17.32 -17 18 C-16.35607621 12.36566685 -13.61685063 9.45516557 -9.5 5.75 C-7.13259871 4.0928191 -5.72998547 3.63699661 -3 3 C-1.26973898 1.52109931 -1.26973898 1.52109931 0 0 Z " fill="#000001" transform="translate(77,111)"/>
<path d="M0 0 C0.33 0.99 0.66 1.98 1 3 C0.1028125 3.680625 0.1028125 3.680625 -0.8125 4.375 C-3.56519493 7.67823391 -4.17116354 10.70989934 -5.09375 14.85546875 C-5.3928125 15.56316406 -5.691875 16.27085937 -6 17 C-8.09375 17.80078125 -8.09375 17.80078125 -10 18 C-10.17568413 13.52005462 -10.29545711 9.93506934 -8 6 C-5.5625 4.375 -5.5625 4.375 -3 3 C-1.24850835 1.41754725 -1.24850835 1.41754725 0 0 Z " fill="#14272A" transform="translate(40,148)"/>
<path d="M0 0 C0.99 0 1.98 0 3 0 C5.12149527 2.67151256 5.94443003 4.61894879 6.4375 8 C5.9001142 11.68493121 4.51917486 13.32337671 2 16 C0.68 15.34 -0.64 14.68 -2 14 C-1.67 12.02 -1.34 10.04 -1 8 C0.32 8 1.64 8 3 8 C2.74438677 5.6568787 2.40729228 3.32156597 2 1 C1.34 0.67 0.68 0.34 0 0 Z " fill="#233538" transform="translate(146,9)"/>
<path d="M0 0 C0 0.66 0 1.32 0 2 C-0.639375 2.2475 -1.27875 2.495 -1.9375 2.75 C-4.1513572 3.78004532 -4.1513572 3.78004532 -4.5625 5.8125 C-4.7790625 6.8953125 -4.7790625 6.8953125 -5 8 C-7.20751451 12.53121399 -10.09197532 14.96042525 -14 18 C-12.23057908 10.76145989 -10.62311756 5.8997636 -4.71875 1.03125 C-3 0 -3 0 0 0 Z " fill="#07161C" transform="translate(125,0)"/>
<path d="M0 0 C1.7074998 1.28062485 3.37373596 2.61767557 5 4 C5 4.66 5 5.32 5 6 C5.66 6 6.32 6 7 6 C7.33 6.99 7.66 7.98 8 9 C8.99 9.33 9.98 9.66 11 10 C11.80078125 12.16796875 11.80078125 12.16796875 12 15 C9.98046875 17.67578125 9.98046875 17.67578125 7.1875 20.3125 C6.27355469 21.19550781 5.35960937 22.07851562 4.41796875 22.98828125 C2 25 2 25 0 25 C1.12005631 21.63983107 2.37211797 20.30935087 5 18 C5.66 18 6.32 18 7 18 C7.33 17.01 7.66 16.02 8 15 C8.66 15 9.32 15 10 15 C10 14.34 10 13.68 10 13 C9.34 13 8.68 13 8 13 C6.5625 11.06640625 6.5625 11.06640625 5 8.5625 C3.0470084 5.18993349 3.0470084 5.18993349 0 3 C0 2.01 0 1.02 0 0 Z " fill="#000000" transform="translate(20,76)"/>
<path d="M0 0 C1.32 0 2.64 0 4 0 C4.75 3.25 4.75 3.25 5 7 C3.4375 9.4375 3.4375 9.4375 1 11 C-2.25 11.25 -2.25 11.25 -5 11 C-4.01 9.02 -3.02 7.04 -2 5 C-1.34 5 -0.68 5 0 5 C0 3.35 0 1.7 0 0 Z " fill="#405254" transform="translate(104,57)"/>
<path d="M0 0 C-1.3125 1.5 -1.3125 1.5 -3 3 C-3.99 3 -4.98 3 -6 3 C-7.10228696 7.40914783 -7.07654536 11.48382401 -7 16 C-8.32 15.67 -9.64 15.34 -11 15 C-11.15806988 5.3577371 -11.15806988 5.3577371 -8.1875 1.875 C-5.37627474 -0.53462165 -3.44661262 -1.72330631 0 0 Z " fill="#000000" transform="translate(38,151)"/>
<path d="M0 0 C0.99 0.99 1.98 1.98 3 3 C-0.75 6 -0.75 6 -3 6 C-3.804375 6.99 -4.60875 7.98 -5.4375 9 C-6.283125 9.99 -7.12875 10.98 -8 12 C-8.99 12 -9.98 12 -11 12 C-10.45712148 8.19985035 -8.88535357 6.46103687 -6 4 C-5.01 3.67 -4.02 3.34 -3 3 C-1.33289654 1.50014391 -1.33289654 1.50014391 0 0 Z " fill="#16363B" transform="translate(58,132)"/>
<path d="M0 0 C0.33 1.32 0.66 2.64 1 4 C1.99 4 2.98 4 4 4 C4.0825 4.78375 4.165 5.5675 4.25 6.375 C4.70849401 9.1446618 4.70849401 9.1446618 7 10.125 C7.99 10.558125 7.99 10.558125 9 11 C9.33 11.99 9.66 12.98 10 14 C10.66 14 11.32 14 12 14 C11.67 14.99 11.34 15.98 11 17 C11 16.34 11 15.68 11 15 C10.01 14.67 9.02 14.34 8 14 C8 13.34 8 12.68 8 12 C7.01 12.33 6.02 12.66 5 13 C3.82439821 11.73742767 2.65977135 10.46462916 1.5 9.1875 C0.8503125 8.47980469 0.200625 7.77210937 -0.46875 7.04296875 C-2 5 -2 5 -2 2 C-1.34 2 -0.68 2 0 2 C0 1.34 0 0.68 0 0 Z " fill="#103D3F" transform="translate(34,18)"/>
<path d="M0 0 C0 0.66 0 1.32 0 2 C-0.969375 2.2475 -1.93875 2.495 -2.9375 2.75 C-6.02342156 3.63084057 -6.02342156 3.63084057 -6.875 5.625 C-7.0574734 9.09199463 -7.05786907 12.52785608 -7 16 C-8.32 15.67 -9.64 15.34 -11 15 C-10.81045025 6.12562535 -10.81045025 6.12562535 -7.75 1.875 C-4.79064463 -0.1427423 -3.49411815 -0.49915974 0 0 Z " fill="#000000" transform="translate(38,6)"/>
<path d="M0 0 C0.8971875 0.309375 0.8971875 0.309375 1.8125 0.625 C0.389375 1.3984375 0.389375 1.3984375 -1.0625 2.1875 C-4.802017 5.10432326 -5.3091227 7.05743804 -6.1875 11.625 C-8.8275 12.285 -11.4675 12.945 -14.1875 13.625 C-13.8575 12.635 -13.5275 11.645 -13.1875 10.625 C-12.1975 10.625 -11.2075 10.625 -10.1875 10.625 C-9.8575 9.305 -9.5275 7.985 -9.1875 6.625 C-8.5275 6.625 -7.8675 6.625 -7.1875 6.625 C-6.919375 5.84125 -6.65125 5.0575 -6.375 4.25 C-4.93766718 1.07273798 -3.68078077 -0.63099099 0 0 Z " fill="#0B1718" transform="translate(160.1875,30.375)"/>
<path d="M0 0 C1.670625 0.061875 1.670625 0.061875 3.375 0.125 C2.375 3.125 2.375 3.125 0.375 4.125 C0.045 5.115 -0.285 6.105 -0.625 7.125 C-1.615 7.125 -2.605 7.125 -3.625 7.125 C-3.955 8.115 -4.285 9.105 -4.625 10.125 C-5.285 9.465 -5.945 8.805 -6.625 8.125 C-6.17945912 2.77850948 -5.84477173 0.20154385 0 0 Z " fill="#2E3B3C" transform="translate(127.625,39.875)"/>
<path d="M0 0 C0.66 0.66 1.32 1.32 2 2 C2.99 2.66 3.98 3.32 5 4 C4.030625 4.61875 3.06125 5.2375 2.0625 5.875 C-1.02835362 7.65678846 -1.02835362 7.65678846 -2 10 C-2.99 10 -3.98 10 -5 10 C-5.33 10.99 -5.66 11.98 -6 13 C-6.3125 9.8125 -6.3125 9.8125 -6 6 C-3.5625 3.125 -3.5625 3.125 -1 1 C-0.67 0.67 -0.34 0.34 0 0 Z " fill="#18242B" transform="translate(43,119)"/>
<path d="M0 0 C0.99 0 1.98 0 3 0 C3.66 0.99 4.32 1.98 5 3 C8.06556598 3.73343428 8.06556598 3.73343428 11 4 C11 5.65 11 7.3 11 9 C9.25 9.75 9.25 9.75 7 10 C4.75 8.1875 4.75 8.1875 3 6 C3 5.34 3 4.68 3 4 C2.03886134 2.63838689 1.04115841 1.30144802 0 0 Z " fill="#142F34" transform="translate(84,27)"/>
<path d="M0 0 C1.32 0 2.64 0 4 0 C4 1.32 4 2.64 4 4 C4.66 4 5.32 4 6 4 C6.33 6.31 6.66 8.62 7 11 C5.68 11 4.36 11 3 11 C2.67 9.02 2.34 7.04 2 5 C1.01 4.67 0.02 4.34 -1 4 C-0.67 2.68 -0.34 1.36 0 0 Z " fill="#293A3A" transform="translate(142,6)"/>
<path d="M0 0 C1.9375 0.375 1.9375 0.375 4 1 C4.33 1.66 4.66 2.32 5 3 C7.01669827 4.13350534 7.01669827 4.13350534 9 5 C9 6.32 9 7.64 9 9 C9.99 9 10.98 9 12 9 C12 9.66 12 10.32 12 11 C12.66 11 13.32 11 14 11 C14.33 12.65 14.66 14.3 15 16 C13.68 16 12.36 16 11 16 C11 14.35 11 12.7 11 11 C9.68 10.34 8.36 9.68 7 9 C7 7.68 7 6.36 7 5 C6.21625 4.9175 5.4325 4.835 4.625 4.75 C2 4 2 4 0.6875 1.9375 C0.460625 1.298125 0.23375 0.65875 0 0 Z " fill="#0F353B" transform="translate(121,106)"/>
<path d="M0 0 C-1 3 -1 3 -2.9375 4 C-3.618125 4.33 -4.29875 4.66 -5 5 C-5.99 6.485 -5.99 6.485 -7 8 C-7.66 8 -8.32 8 -9 8 C-9.4021875 9.2065625 -9.4021875 9.2065625 -9.8125 10.4375 C-10.4003125 11.7059375 -10.4003125 11.7059375 -11 13 C-11.99 13.33 -12.98 13.66 -14 14 C-12.46104655 9.07534897 -9.59570593 4.6817276 -6 1 C-3.86029291 0.24100956 -2.26294087 0 0 0 Z " fill="#000000" transform="translate(128,62)"/>
<path d="M0 0 C1.10408203 0.23396484 1.10408203 0.23396484 2.23046875 0.47265625 C3.20628906 0.66730469 4.18210937 0.86195312 5.1875 1.0625 C6.15042969 1.25972656 7.11335938 1.45695312 8.10546875 1.66015625 C11.08069747 2.0094746 13.11329583 1.71230363 16 1 C18.662709 0.62359611 21.32918205 0.31687671 24 0 C22.02 0.99 22.02 0.99 20 2 C20 2.66 20 3.32 20 4 C14.72 4 9.44 4 4 4 C4 3.34 4 2.68 4 2 C2.68 1.34 1.36 0.68 0 0 Z " fill="#000000" transform="translate(78,68)"/>
<path d="M0 0 C1.98 0.66 3.96 1.32 6 2 C6 2.99 6 3.98 6 5 C6.66 5 7.32 5 8 5 C7.67 6.32 7.34 7.64 7 9 C5.68 8.67 4.36 8.34 3 8 C3 7.34 3 6.68 3 6 C2.01 5.67 1.02 5.34 0 5 C-0.75 3 -0.75 3 -1 1 C-0.67 0.67 -0.34 0.34 0 0 Z " fill="#0E263D" transform="translate(150,137)"/>
<path d="M0 0 C1.98 0 3.96 0 6 0 C6.268125 0.763125 6.53625 1.52625 6.8125 2.3125 C7.94424112 4.87380884 8.91223401 6.19692938 11 8 C10.01 9.485 10.01 9.485 9 11 C7 10 7 10 6 7 C3.99878825 4.63493157 3.03200339 4.0106678 0 3 C0 2.01 0 1.02 0 0 Z " fill="#000B0D" transform="translate(122,111)"/>
<path d="M0 0 C4 0 4 0 5.5625 1.4375 C6.036875 1.953125 6.51125 2.46875 7 3 C7.99 3.33 8.98 3.66 10 4 C11.6875 6.0625 11.6875 6.0625 13 8 C12.01 9.485 12.01 9.485 11 11 C10.76539062 10.37609375 10.53078125 9.7521875 10.2890625 9.109375 C8.63176925 6.39744059 7.3858401 6.11024003 4.375 5.25 C3.55773438 5.00765625 2.74046875 4.7653125 1.8984375 4.515625 C1.27195313 4.34546875 0.64546875 4.1753125 0 4 C0 2.68 0 1.36 0 0 Z " fill="#172323" transform="translate(55,2)"/>
<path d="M0 0 C0.99 0.33 1.98 0.66 3 1 C2.67 2.98 2.34 4.96 2 7 C1.01 7 0.02 7 -1 7 C-1.33 8.32 -1.66 9.64 -2 11 C-3.65 10.67 -5.3 10.34 -7 10 C-6.34 9.67 -5.68 9.34 -5 9 C-5 8.34 -5 7.68 -5 7 C-4.34 7 -3.68 7 -3 7 C-2.690625 6.030625 -2.38125 5.06125 -2.0625 4.0625 C-1 1 -1 1 0 0 Z " fill="#1E3337" transform="translate(75,153)"/>
<path d="M0 0 C0.99 0 1.98 0 3 0 C3 0.66 3 1.32 3 2 C3.99 2.33 4.98 2.66 6 3 C-0.56053812 7.12376682 -0.56053812 7.12376682 -4.08984375 6.8203125 C-6 6.25 -6 6.25 -9 5 C-6.92690266 3.88941214 -5.11381589 3.02601506 -2.8125 2.5 C-2.214375 2.335 -1.61625 2.17 -1 2 C-0.67 1.34 -0.34 0.68 0 0 Z " fill="#303D3F" transform="translate(19,142)"/>
<path d="M0 0 C0.66 0.66 1.32 1.32 2 2 C1.625 4.625 1.625 4.625 1 7 C0.34 7 -0.32 7 -1 7 C0.83827868 10.15133488 2.75972706 13.11964908 5 16 C2.77888714 15.61704951 1.19619717 15.13079812 -0.6875 13.875 C-2.72340927 10.96655818 -2.879019 8.50844891 -3 5 C-1.5625 2.0625 -1.5625 2.0625 0 0 Z " fill="#183535" transform="translate(33,13)"/>
<path d="M0 0 C0.33 1.32 0.66 2.64 1 4 C-0.65 3.67 -2.3 3.34 -4 3 C-2.68 2.01 -1.36 1.02 0 0 Z M-4 3 C-4 4.65 -4 6.3 -4 8 C-6.31 8 -8.62 8 -11 8 C-11 7.01 -11 6.02 -11 5 C-6.25 3 -6.25 3 -4 3 Z " fill="#4D5A5C" transform="translate(140,172)"/>
<path d="M0 0 C1.32 0.33 2.64 0.66 4 1 C3 4 3 4 0.9375 5.1875 C0.298125 5.455625 -0.34125 5.72375 -1 6 C-1 7.32 -1 8.64 -1 10 C-0.34 10.66 0.32 11.32 1 12 C-0.32 11.67 -1.64 11.34 -3 11 C-3 10.34 -3 9.68 -3 9 C-3.66 9 -4.32 9 -5 9 C-5 7.35 -5 5.7 -5 4 C-4.34 3.67 -3.68 3.34 -3 3 C-2.67 2.34 -2.34 1.68 -2 1 C-1.34 1.33 -0.68 1.66 0 2 C0 1.34 0 0.68 0 0 Z " fill="#1C292B" transform="translate(151,82)"/>
<path d="M0 0 C-0.33 1.65 -0.66 3.3 -1 5 C-1.99 5.33 -2.98 5.66 -4 6 C-4 6.99 -4 7.98 -4 9 C-5.32 9.33 -6.64 9.66 -8 10 C-7.67 9.38125 -7.34 8.7625 -7 8.125 C-5.85806765 6.08981656 -5.85806765 6.08981656 -6 4 C-6.66 4 -7.32 4 -8 4 C-6.07740436 0.15480872 -4.12054651 0 0 0 Z " fill="#121D1D" transform="translate(178,58)"/>
<path d="M0 0 C1.32 0 2.64 0 4 0 C4 0.66 4 1.32 4 2 C6.475 2.99 6.475 2.99 9 4 C9 4.66 9 5.32 9 6 C6.69 6.33 4.38 6.66 2 7 C1.34 4.69 0.68 2.38 0 0 Z " fill="#192425" transform="translate(165,109)"/>
<path d="M0 0 C0.99 0 1.98 0 3 0 C3 0.99 3 1.98 3 3 C3.66 3.33 4.32 3.66 5 4 C4.35546875 4.38800781 3.7109375 4.77601562 3.046875 5.17578125 C0.79121416 6.83946485 0.79121416 6.83946485 0.390625 9.48046875 C0.34421875 10.37378906 0.2978125 11.26710938 0.25 12.1875 C0.19328125 13.08855469 0.1365625 13.98960938 0.078125 14.91796875 C0.03945312 15.94857422 0.03945312 15.94857422 0 17 C-0.33 17 -0.66 17 -1 17 C-1.02684679 14.35409986 -1.04676357 11.70846904 -1.0625 9.0625 C-1.07087891 8.30775391 -1.07925781 7.55300781 -1.08789062 6.77539062 C-1.09652441 4.85005687 -1.05224333 2.92464419 -1 1 C-0.67 0.67 -0.34 0.34 0 0 Z " fill="#0D363B" transform="translate(115,75)"/>
<path d="M0 0 C0.66 0 1.32 0 2 0 C2 0.99 2 1.98 2 3 C2.99 3.33 3.98 3.66 5 4 C5 5.98 5 7.96 5 10 C4.01 10.495 4.01 10.495 3 11 C2.34 10.67 1.68 10.34 1 10 C1 8.68 1 7.36 1 6 C0.34 6 -0.32 6 -1 6 C-0.67 4.02 -0.34 2.04 0 0 Z " fill="#1F3131" transform="translate(68,10)"/>
<path d="M0 0 C0.6875 1.6875 0.6875 1.6875 1 4 C-0.28602369 6.84278921 -1.38467289 8.56331625 -3.9375 10.375 C-6.3613046 11.10948624 -7.64316506 10.84172676 -10 10 C-6.25 7 -6.25 7 -4 7 C-3.71125 6.21625 -3.4225 5.4325 -3.125 4.625 C-2 2 -2 2 0 0 Z " fill="#000000" transform="translate(113,9)"/>
<path d="M0 0 C4.47029757 1.49009919 6.20622909 4.66646487 8.5625 8.625 C9.87878186 11.01310018 9.87878186 11.01310018 11.6875 12.6875 C12.120625 13.120625 12.55375 13.55375 13 14 C13 14.66 13 15.32 13 16 C12.34 16 11.68 16 11 16 C9.4140625 14.171875 9.4140625 14.171875 7.625 11.75 C5.77497157 9.25612908 4.0310757 7.02944014 1.7734375 4.890625 C0 3 0 3 0 0 Z " fill="#000001" transform="translate(110,164)"/>
<path d="M0 0 C4.09941074 2.10510281 5.76015762 4.02937033 8 8 C8.99 8.66 9.98 9.32 11 10 C10.67 10.66 10.34 11.32 10 12 C8.68 11.67 7.36 11.34 6 11 C6 10.34 6 9.68 6 9 C5.34 9 4.68 9 4 9 C3.71125 8.030625 3.4225 7.06125 3.125 6.0625 C2.35785318 2.89335797 2.35785318 2.89335797 0 2 C0 1.34 0 0.68 0 0 Z " fill="#131420" transform="translate(59,68)"/>
<path d="M0 0 C0.556875 0.28875 1.11375 0.5775 1.6875 0.875 C4.08494645 2.0413253 6.51596939 3.0339881 9 4 C8.95875 4.78375 8.9175 5.5675 8.875 6.375 C8.71271266 9.16116119 8.71271266 9.16116119 11 11 C9.68 10.67 8.36 10.34 7 10 C7 9.01 7 8.02 7 7 C6.01 7 5.02 7 4 7 C4 6.01 4 5.02 4 4 C2.68 3.67 1.36 3.34 0 3 C0 2.01 0 1.02 0 0 Z " fill="#061010" transform="translate(56,47)"/>
<path d="M0 0 C4.6875 3.61328125 4.6875 3.61328125 6 5 C6 5.99 6 6.98 6 8 C7.94009522 9.70532323 7.94009522 9.70532323 10 11 C6.6875 10.875 6.6875 10.875 3 10 C0.49340858 6.36139956 0 4.44671416 0 0 Z " fill="#293D40" transform="translate(83,27)"/>
<path d="M0 0 C0.66 0.99 1.32 1.98 2 3 C-2.62 3 -7.24 3 -12 3 C-9.83251998 -1.33496004 -4.16335675 -0.26434011 0 0 Z " fill="#000000" transform="translate(94,108)"/>
<path d="M0 0 C1.485 0.99 1.485 0.99 3 2 C3 2.99 3 3.98 3 5 C4.32 5 5.64 5 7 5 C7 6.32 7 7.64 7 9 C5.35 9 3.7 9 2 9 C0.93347808 6.69631264 -0.06421005 4.35981813 -1 2 C-0.67 1.34 -0.34 0.68 0 0 Z " fill="#243E40" transform="translate(121,171)"/>
<path d="M0 0 C1.98 0.66 3.96 1.32 6 2 C5.34 3.98 4.68 5.96 4 8 C3.01 8 2.02 8 1 8 C0.26919734 6.02253397 -0.39421747 4.01927511 -1 2 C-0.67 1.34 -0.34 0.68 0 0 Z " fill="#495253" transform="translate(141,166)"/>
<path d="M0 0 C1.03125 0.185625 2.0625 0.37125 3.125 0.5625 C6.76148442 0.97307082 9.45437009 0.778309 13 0 C11.35 1.65 9.7 3.3 8 5 C4.62496331 3.8141763 2.35277269 2.72426311 0 0 Z " fill="#000002" transform="translate(157,146)"/>
<path d="M0 0 C0 0.99 0 1.98 0 3 C-0.66 3 -1.32 3 -2 3 C-2 3.99 -2 4.98 -2 6 C-2.639375 6.103125 -3.27875 6.20625 -3.9375 6.3125 C-4.618125 6.539375 -5.29875 6.76625 -6 7 C-6.33 7.99 -6.66 8.98 -7 10 C-7.66 9.67 -8.32 9.34 -9 9 C-6.54098361 3.3442623 -6.54098361 3.3442623 -3.9375 1.6875 C-3.298125 1.460625 -2.65875 1.23375 -2 1 C-1.34 0.67 -0.68 0.34 0 0 Z " fill="#161D1D" transform="translate(36,132)"/>
<path d="M0 0 C0.598125 0.309375 1.19625 0.61875 1.8125 0.9375 C4.08956772 2.10209704 4.08956772 2.10209704 7 3 C8.58965571 5.21701147 9.72327486 7.57862473 11 10 C10.01 10 9.02 10 8 10 C7.34 9.01 6.68 8.02 6 7 C5.154375 6.525625 4.30875 6.05125 3.4375 5.5625 C1 4 1 4 0.1875 1.8125 C0.125625 1.214375 0.06375 0.61625 0 0 Z " fill="#000000" transform="translate(67,58)"/>
<path d="M0 0 C0.53625 0.391875 1.0725 0.78375 1.625 1.1875 C1.625 2.1775 1.625 3.1675 1.625 4.1875 C-2.83 4.6825 -2.83 4.6825 -7.375 5.1875 C-7.705 4.1975 -8.035 3.2075 -8.375 2.1875 C-2.95961538 -1.0125 -2.95961538 -1.0125 0 0 Z " fill="#07191B" transform="translate(17.375,27.8125)"/>
<path d="M0 0 C3 1 3 1 4.1875 2.6875 C5.22287332 5.63433175 5.33700482 7.89955564 5 11 C4.01 11.66 3.02 12.32 2 13 C1.93941406 12.31292969 1.87882813 11.62585938 1.81640625 10.91796875 C1.73261719 10.01691406 1.64882812 9.11585938 1.5625 8.1875 C1.48128906 7.29417969 1.40007812 6.40085938 1.31640625 5.48046875 C1.06510233 2.87256441 1.06510233 2.87256441 0 0 Z " fill="#000000" transform="translate(147,154)"/>
<path d="M0 0 C0.33 0.99 0.66 1.98 1 3 C-0.28965176 4.37562854 -1.62689293 5.70766393 -3 7 C-3.66 7 -4.32 7 -5 7 C-5.268125 7.639375 -5.53625 8.27875 -5.8125 8.9375 C-7 11 -7 11 -10 12 C-8.96905133 9.42262834 -8.4891374 8.23715753 -5.9375 7 C-5.298125 6.67 -4.65875 6.34 -4 6 C-3.6278958 4.67696283 -3.29369827 3.34262065 -3 2 C-2.01 1.34 -1.02 0.68 0 0 Z " fill="#000000" transform="translate(87,146)"/>
<path d="M0 0 C1.32 0 2.64 0 4 0 C4 1.32 4 2.64 4 4 C-1.75 7 -1.75 7 -4 7 C-3.67 5.68 -3.34 4.36 -3 3 C-2.01 3 -1.02 3 0 3 C0 2.01 0 1.02 0 0 Z " fill="#091414" transform="translate(6,112)"/>
<path d="M0 0 C1.31625194 2.63250388 0.74813658 3.80179056 0.0625 6.625 C-0.13214844 7.44226563 -0.32679687 8.25953125 -0.52734375 9.1015625 C-0.76130859 10.04128906 -0.76130859 10.04128906 -1 11 C-2.32 11 -3.64 11 -5 11 C-4.74445946 9.53890937 -4.46999628 8.08111904 -4.1875 6.625 C-4.03667969 5.81289062 -3.88585937 5.00078125 -3.73046875 4.1640625 C-3 2 -3 2 0 0 Z " fill="#183337" transform="translate(35,155)"/>
<path d="M0 0 C2.76262553 0.3810518 3.84143894 0.83597132 5.8125 2.875 C6.204375 3.57625 6.59625 4.2775 7 5 C6.67 5.99 6.34 6.98 6 8 C5.01 7.67 4.02 7.34 3 7 C3 6.01 3 5.02 3 4 C1.68 3.67 0.36 3.34 -1 3 C-0.67 2.01 -0.34 1.02 0 0 Z " fill="#011414" transform="translate(133,121)"/>
<path d="M0 0 C2.00720923 0.28674418 4.0085944 0.61866701 6 1 C6.33 1.99 6.66 2.98 7 4 C5.02 4.33 3.04 4.66 1 5 C0.34 3.68 -0.32 2.36 -1 1 C-0.67 0.67 -0.34 0.34 0 0 Z " fill="#212E32" transform="translate(99,111)"/>
<path d="M0 0 C2 0.25 2 0.25 4 1 C4.33 1.99 4.66 2.98 5 4 C3.1875 5.5625 3.1875 5.5625 1 7 C0.01 6.67 -0.98 6.34 -2 6 C-1.125 1.125 -1.125 1.125 0 0 Z " fill="#394C4E" transform="translate(168,61)"/>
<path d="M0 0 C1.98 0 3.96 0 6 0 C6 1.65 6 3.3 6 5 C6.99 5.33 7.98 5.66 9 6 C9.33 7.65 9.66 9.3 10 11 C7.53199953 9.84826645 5.95216435 8.95216435 4 7 C4 5.33333333 4 3.66666667 4 2 C2.68 1.67 1.36 1.34 0 1 C0 0.67 0 0.34 0 0 Z " fill="#163739" transform="translate(52,39)"/>
<path d="M0 0 C2.46800047 1.15173355 4.04783565 2.04783565 6 4 C6.99 4 7.98 4 9 4 C9 5.32 9 6.64 9 8 C6.5625 7.625 6.5625 7.625 4 7 C3.67 6.34 3.34 5.68 3 5 C2.01 4.67 1.02 4.34 0 4 C0 2.68 0 1.36 0 0 Z " fill="#3B5051" transform="translate(23,37)"/>
<path d="M0 0 C1.13199353 0.9080162 2.25532363 1.82683826 3.375 2.75 C4.00148438 3.26046875 4.62796875 3.7709375 5.2734375 4.296875 C7.08312318 6.08199481 8.00117455 7.67949644 9 10 C8.01 10.33 7.02 10.66 6 11 C3.16354495 8.4380406 1.61286609 6.79976979 1 3 C0.67 2.01 0.34 1.02 0 0 Z " fill="#1C1E1E" transform="translate(22,31)"/>
<path d="M0 0 C-0.99 0.495 -0.99 0.495 -2 1 C-2 1.66 -2 2.32 -2 3 C-5.28976808 4.09658936 -6.71303767 3.79953138 -10 3 C-9.67 2.01 -9.34 1.02 -9 0 C-5.93109813 -1.53445094 -3.29905734 -0.54984289 0 0 Z " fill="#415A5C" transform="translate(133,37)"/>
<path d="M0 0 C-1.65 1.65 -3.3 3.3 -5 5 C-5.66 4.67 -6.32 4.34 -7 4 C-7 3.34 -7 2.68 -7 2 C-7.99 1.67 -8.98 1.34 -10 1 C-3.71428571 -1.42857143 -3.71428571 -1.42857143 0 0 Z " fill="#273838" transform="translate(70,166)"/>
<path d="M0 0 C2.475 0.495 2.475 0.495 5 1 C5 1.66 5 2.32 5 3 C5.66 3 6.32 3 7 3 C7.33 3.66 7.66 4.32 8 5 C8.99 5.33 9.98 5.66 11 6 C10.67 6.99 10.34 7.98 10 9 C8.66144944 8.21718695 7.32926356 7.42348123 6 6.625 C5.2575 6.18414062 4.515 5.74328125 3.75 5.2890625 C2.88375 4.65097656 2.88375 4.65097656 2 4 C2 3.34 2 2.68 2 2 C1.34 2 0.68 2 0 2 C0 1.34 0 0.68 0 0 Z " fill="#294549" transform="translate(133,146)"/>
<path d="M0 0 C3.24208567 0.35049575 4.61527704 0.56221181 6.8125 3.0625 C7.204375 3.701875 7.59625 4.34125 8 5 C7.34 5.66 6.68 6.32 6 7 C3.375 6.625 3.375 6.625 1 6 C0.67 4.02 0.34 2.04 0 0 Z " fill="#0C3638" transform="translate(138,124)"/>
<path d="M0 0 C0.66 0.33 1.32 0.66 2 1 C2.99 1 3.98 1 5 1 C4 4 4 4 2 5.0625 C1.34 5.371875 0.68 5.68125 0 6 C-0.33 6.66 -0.66 7.32 -1 8 C-1.66 8 -2.32 8 -3 8 C-3.33 8.66 -3.66 9.32 -4 10 C-4.33 8.68 -4.66 7.36 -5 6 C-4.01 6 -3.02 6 -2 6 C-1.34 4.02 -0.68 2.04 0 0 Z " fill="#282D2D" transform="translate(60,170)"/>
<path d="M0 0 C2 0 2 0 4.0625 1.5625 C6.52869615 4.66513386 6.70042017 7.10546216 7 11 C3.78397182 8.63029503 1.35875408 6.82921605 0 3 C0 2.01 0 1.02 0 0 Z " fill="#0B2F39" transform="translate(115,166)"/>
<path d="M0 0 C-0.0625 3.3125 -0.0625 3.3125 -1 7 C-3.28141342 8.59040839 -5.29874113 9.16506544 -8 10 C-7.67 9.01 -7.34 8.02 -7 7 C-6.34 6.67 -5.68 6.34 -5 6 C-4.67 5.175 -4.34 4.35 -4 3.5 C-2.6 0 -2.6 0 0 0 Z " fill="#020C0F" transform="translate(46,140)"/>
<path d="M0 0 C4.24846075 0.47205119 6.26819288 2.88877522 9 6 C9 6.66 9 7.32 9 8 C9.66 8 10.32 8 11 8 C11 9.32 11 10.64 11 12 C10.34 12 9.68 12 9 12 C7.4921875 10.3203125 7.4921875 10.3203125 5.875 8.125 C5.06675781 7.04605469 5.06675781 7.04605469 4.2421875 5.9453125 C3 4 3 4 3 2 C2.01 2 1.02 2 0 2 C0 1.34 0 0.68 0 0 Z " fill="#010111" transform="translate(127,135)"/>
<path d="M0 0 C1.65 0 3.3 0 5 0 C5.33 2.31 5.66 4.62 6 7 C3.00675737 5.9024777 2.15389099 5.32317108 0.75 2.375 C0.5025 1.59125 0.255 0.8075 0 0 Z " fill="#0F2325" transform="translate(0,136)"/>
<path d="M0 0 C0.556875 0.28875 1.11375 0.5775 1.6875 0.875 C4.08494645 2.0413253 6.51596939 3.0339881 9 4 C8.67 4.99 8.34 5.98 8 7 C6.02 7 4.04 7 2 7 C1.855625 6.401875 1.71125 5.80375 1.5625 5.1875 C1.1127561 3.43849596 0.57107659 1.71322977 0 0 Z " fill="#253840" transform="translate(43,55)"/>
<path d="M0 0 C1.77503906 0.03480469 1.77503906 0.03480469 3.5859375 0.0703125 C5.36871094 0.09738281 5.36871094 0.09738281 7.1875 0.125 C8.10273437 0.14820312 9.01796875 0.17140625 9.9609375 0.1953125 C9.9609375 0.5253125 9.9609375 0.8553125 9.9609375 1.1953125 C4.6366025 3.51617647 0.52251198 3.10988253 -5.0390625 2.1953125 C-3.0390625 0.1953125 -3.0390625 0.1953125 0 0 Z " fill="#203235" transform="translate(89.0390625,67.8046875)"/>
<path d="M0 0 C0 3 0 3 -1.75 4.82421875 C-2.4925 5.43910156 -3.235 6.05398437 -4 6.6875 C-4.7425 7.31011719 -5.485 7.93273438 -6.25 8.57421875 C-6.8275 9.04472656 -7.405 9.51523437 -8 10 C-8.33 8.68 -8.66 7.36 -9 6 C-6.03 4.02 -3.06 2.04 0 0 Z " fill="#000002" transform="translate(145,44)"/>
<path d="M0 0 C0.33 0.66 0.66 1.32 1 2 C0.34 1.67 -0.32 1.34 -1 1 C-0.67 0.67 -0.34 0.34 0 0 Z M-3 1 C-2.34 1.66 -1.68 2.32 -1 3 C-1.375 6.625 -1.375 6.625 -2 10 C-2.99 10.33 -3.98 10.66 -5 11 C-5.25 4.375 -5.25 4.375 -3 1 Z " fill="#15363B" transform="translate(5,44)"/>
<path d="M0 0 C2.6875 0.0625 2.6875 0.0625 6 1 C7.99364654 3.14304124 9.51532107 5.48392907 11 8 C9.68 7.67 8.36 7.34 7 7 C7 6.34 7 5.68 7 5 C6.401875 4.731875 5.80375 4.46375 5.1875 4.1875 C3.02775192 3.01506533 1.64209744 1.80630718 0 0 Z " fill="#000000" transform="translate(166,30)"/>
<path d="M0 0 C0.99 0 1.98 0 3 0 C5.91033076 3.66486096 6.32136655 6.39374606 6 11 C5.01 11.495 5.01 11.495 4 12 C3.87882813 11.21753906 3.75765625 10.43507813 3.6328125 9.62890625 C3.38144531 8.11103516 3.38144531 8.11103516 3.125 6.5625 C2.96257812 5.55316406 2.80015625 4.54382813 2.6328125 3.50390625 C2.42398438 2.67761719 2.21515625 1.85132813 2 1 C1.34 0.67 0.68 0.34 0 0 Z " fill="#000000" transform="translate(146,9)"/>
<path d="M0 0 C0.66 0 1.32 0 2 0 C2 0.66 2 1.32 2 2 C3.32 2.33 4.64 2.66 6 3 C6 3.66 6 4.32 6 5 C6.66 5.33 7.32 5.66 8 6 C5 7 5 7 2.375 6.25 C0 5 0 5 -1 2 C-0.67 1.34 -0.34 0.68 0 0 Z " fill="#152929" transform="translate(136,0)"/>
<path d="M0 0 C3.63 0 7.26 0 11 0 C10.67 0.66 10.34 1.32 10 2 C7.93359375 2.4140625 7.93359375 2.4140625 5.4375 2.625 C4.61121094 2.69976562 3.78492188 2.77453125 2.93359375 2.8515625 C1.97646484 2.92503906 1.97646484 2.92503906 1 3 C0.67 3.99 0.34 4.98 0 6 C0 4.02 0 2.04 0 0 Z " fill="#2D4146" transform="translate(42,0)"/>
<path d="M0 0 C0.33 1.32 0.66 2.64 1 4 C1.99 4 2.98 4 4 4 C4 5.32 4 6.64 4 8 C1.13275314 7.42655063 0.1385485 7.1385485 -2 5 C-2 4.01 -2 3.02 -2 2 C-1.34 2 -0.68 2 0 2 C0 1.34 0 0.68 0 0 Z " fill="#183637" transform="translate(34,18)"/>
<path d="M0 0 C0.556875 0.28875 1.11375 0.5775 1.6875 0.875 C4.02189686 2.06635767 4.02189686 2.06635767 6.6875 2.9375 C7.450625 3.288125 8.21375 3.63875 9 4 C9.33 4.99 9.66 5.98 10 7 C5.1746274 6.58639663 3.13078071 4.5780351 0 1 C0 0.67 0 0.34 0 0 Z " fill="#000000" transform="translate(100,157)"/>
<path d="M0 0 C1.32 0.33 2.64 0.66 4 1 C4 1.66 4 2.32 4 3 C5.32 3.33 6.64 3.66 8 4 C8 5.98 8 7.96 8 10 C6 7 6 7 6 5 C4.68 4.67 3.36 4.34 2 4 C2 3.34 2 2.68 2 2 C1.34 2 0.68 2 0 2 C0 1.34 0 0.68 0 0 Z " fill="#1F2B2B" transform="translate(138,147)"/>
<path d="M0 0 C0.99 0.33 1.98 0.66 3 1 C2.25 5.75 2.25 5.75 0 8 C-0.99 6.68 -1.98 5.36 -3 4 C-2.34 3.67 -1.68 3.34 -1 3 C-0.67 2.01 -0.34 1.02 0 0 Z " fill="#354142" transform="translate(26,135)"/>
<path d="M0 0 C-0.33 0.99 -0.66 1.98 -1 3 C-2.97746603 3.73080266 -4.98072489 4.39421747 -7 5 C-7.99 5.66 -8.98 6.32 -10 7 C-9.8125 5.1875 -9.8125 5.1875 -9 3 C-5.65188866 0.46629412 -4.29875783 0 0 0 Z " fill="#000007" transform="translate(56,133)"/>
<path d="M0 0 C1.32 0 2.64 0 4 0 C6.25 2.5 6.25 2.5 8 5 C7.67 5.66 7.34 6.32 7 7 C6.01 7 5.02 7 4 7 C3.67 6.01 3.34 5.02 3 4 C2.01 3.34 1.02 2.68 0 2 C0 1.34 0 0.68 0 0 Z " fill="#081717" transform="translate(38,30)"/>
<path d="M0 0 C0.33 1.32 0.66 2.64 1 4 C-1.64 4 -4.28 4 -7 4 C-6.67 3.01 -6.34 2.02 -6 1 C-3.90006779 0.25486277 -2.22568901 0 0 0 Z " fill="#4D5B5D" transform="translate(54,176)"/>
<path d="M0 0 C0 0.99 0 1.98 0 3 C-3 5 -3 5 -5.6875 4.625 C-6.450625 4.41875 -7.21375 4.2125 -8 4 C-6 1 -6 1 -4 0.3125 C-2 0 -2 0 0 0 Z " fill="#3A434D" transform="translate(167,69)"/>
<path d="M0 0 C0.99 0.33 1.98 0.66 3 1 C1.75453595 4.73639216 0.36595047 5.18756513 -3 7 C-3.33 6.01 -3.66 5.02 -4 4 C-2.68 2.68 -1.36 1.36 0 0 Z " fill="#163439" transform="translate(131,60)"/>
<path d="M0 0 C3.3125 0.125 3.3125 0.125 7 1 C8.9375 4.0625 8.9375 4.0625 10 7 C8.68 6.67 7.36 6.34 6 6 C6 5.01 6 4.02 6 3 C5.195625 2.87625 4.39125 2.7525 3.5625 2.625 C2.716875 2.41875 1.87125 2.2125 1 2 C0.67 1.34 0.34 0.68 0 0 Z " fill="#28484B" transform="translate(57,7)"/>
<path d="M0 0 C0.66 0.33 1.32 0.66 2 1 C1.3125 3.375 1.3125 3.375 0 6 C-2.625 7.3125 -2.625 7.3125 -5 8 C-2.25 1.125 -2.25 1.125 0 0 Z " fill="#0E191A" transform="translate(77,111)"/>
<path d="M0 0 C1.125 3.75 1.125 3.75 0 6 C-0.99 6 -1.98 6 -3 6 C-3.33 6.99 -3.66 7.98 -4 9 C-4.8125 7.3125 -4.8125 7.3125 -5 5 C-2.5625 2.25 -2.5625 2.25 0 0 Z " fill="#070808" transform="translate(69,97)"/>
<path d="M0 0 C0.66 1.32 1.32 2.64 2 4 C-3.75 7 -3.75 7 -6 7 C-4.77065985 3.31197956 -3.06140622 2.27643027 0 0 Z " fill="#021416" transform="translate(134,55)"/>
<path d="M0 0 C0 1.32 0 2.64 0 4 C-2.64 4.66 -5.28 5.32 -8 6 C-6.24081631 1.94034532 -4.71412298 0 0 0 Z " fill="#1D3839" transform="translate(180,54)"/>
<path d="M0 0 C2.49361571 1.20381448 4.68143083 2.45428722 7 4 C6.67 4.99 6.34 5.98 6 7 C1.2 4.53846154 1.2 4.53846154 0.1875 1.8125 C0.125625 1.214375 0.06375 0.61625 0 0 Z " fill="#000000" transform="translate(49,40)"/>
<path d="M0 0 C2.475 0.495 2.475 0.495 5 1 C5 2.32 5 3.64 5 5 C3.35 5 1.7 5 0 5 C0 3.35 0 1.7 0 0 Z " fill="#333637" transform="translate(136,175)"/>
<path d="M0 0 C3.81684226 1.55500981 6.19195732 4.03595495 9 7 C8.67 7.99 8.34 8.98 8 10 C8 9.34 8 8.68 8 8 C7.01 7.67 6.02 7.34 5 7 C3.11864786 5.13454661 1.62429515 3.10719371 0 1 C0 0.67 0 0.34 0 0 Z " fill="#000000" transform="translate(111,119)"/>
<path d="M0 0 C1.125 3.75 1.125 3.75 0 6 C-3.0625 6.625 -3.0625 6.625 -6 7 C-5.67 6.01 -5.34 5.02 -5 4 C-4.34 4 -3.68 4 -3 4 C-2.67 3.01 -2.34 2.02 -2 1 C-1.34 0.67 -0.68 0.34 0 0 Z " fill="#050F0F" transform="translate(99,23)"/>
<path d="M0 0 C0.99 0 1.98 0 3 0 C3.33 0.99 3.66 1.98 4 3 C4.66 3.33 5.32 3.66 6 4 C5.67 4.99 5.34 5.98 5 7 C4.01 7 3.02 7 2 7 C2 6.01 2 5.02 2 4 C1.01 3.67 0.02 3.34 -1 3 C-0.01 3 0.98 3 2 3 C2 2.34 2 1.68 2 1 C1.34 0.67 0.68 0.34 0 0 Z " fill="#202828" transform="translate(121,129)"/>
<path d="M0 0 C2.79579355 1.39789678 3.59807058 3.2628997 5 6 C4.67 6.66 4.34 7.32 4 8 C3.01 8 2.02 8 1 8 C0.26919734 6.02253397 -0.39421747 4.01927511 -1 2 C-0.67 1.34 -0.34 0.68 0 0 Z " fill="#193434" transform="translate(108,115)"/>
<path d="M0 0 C2.00720923 0.28674418 4.0085944 0.61866701 6 1 C5.1875 2.9375 5.1875 2.9375 4 5 C3.01 5.33 2.02 5.66 1 6 C0.34 4.35 -0.32 2.7 -1 1 C-0.67 0.67 -0.34 0.34 0 0 Z " fill="#374748" transform="translate(44,117)"/>
<path d="M0 0 C0.99 0.66 1.98 1.32 3 2 C1.875 3.5 1.875 3.5 0 5 C-3.1875 5.1875 -3.1875 5.1875 -6 5 C-3.9927092 1.9890638 -3.16115776 1.36983503 0 0 Z " fill="#3D4041" transform="translate(105,63)"/>
<path d="M0 0 C0.598125 0.309375 1.19625 0.61875 1.8125 0.9375 C4.08956772 2.10209704 4.08956772 2.10209704 7 3 C7.6875 5.0625 7.6875 5.0625 8 7 C4.21388773 6.45912682 2.44599233 4.88277668 0 2 C0 1.34 0 0.68 0 0 Z " fill="#000000" transform="translate(6,65)"/>
<path d="M0 0 C-0.33 0.99 -0.66 1.98 -1 3 C-1 2.34 -1 1.68 -1 1 C-1.78375 1.474375 -2.5675 1.94875 -3.375 2.4375 C-4.88948678 3.33898023 -6.4235897 4.21179485 -8 5 C-7.67 3.35 -7.34 1.7 -7 0 C-3.98968256 -0.93423645 -3.13349732 -1.04449911 0 0 Z " fill="#223E44" transform="translate(18,32)"/>
<path d="M0 0 C1.9375 0.375 1.9375 0.375 4 1 C4.33 1.66 4.66 2.32 5 3 C4.67 3.99 4.34 4.98 4 6 C3.01 5.67 2.02 5.34 1 5 C1.33 4.67 1.66 4.34 2 4 C1.01 3.67 0.02 3.34 -1 3 C-0.67 2.01 -0.34 1.02 0 0 Z " fill="#1B2C2F" transform="translate(47,115)"/>
<path d="M0 0 C1.65 0.33 3.3 0.66 5 1 C5.33 1.99 5.66 2.98 6 4 C4.02 4 2.04 4 0 4 C-0.33 3.34 -0.66 2.68 -1 2 C-0.67 1.34 -0.34 0.68 0 0 Z " fill="#172929" transform="translate(161,104)"/>
<path d="M0 0 C0.33 0.66 0.66 1.32 1 2 C1.66 2 2.32 2 3 2 C3.33 4.31 3.66 6.62 4 9 C0.06153846 5.67692308 0.06153846 5.67692308 -0.25 2.25 C-0.1675 1.5075 -0.085 0.765 0 0 Z " fill="#000000" transform="translate(110,94)"/>
<path d="M0 0 C0.66 0.33 1.32 0.66 2 1 C0.75 3.9375 0.75 3.9375 -1 7 C-3.1875 7.875 -3.1875 7.875 -5 8 C-3.8141763 4.62496331 -2.72426311 2.35277269 0 0 Z " fill="#0A2A2A" transform="translate(122,67)"/>
<path d="M0 0 C0.66 0.99 1.32 1.98 2 3 C1 4 1 4 -1.28515625 4.09765625 C-2.65994141 4.08025391 -2.65994141 4.08025391 -4.0625 4.0625 C-4.98160156 4.05347656 -5.90070313 4.04445313 -6.84765625 4.03515625 C-7.55792969 4.02355469 -8.26820312 4.01195313 -9 4 C-8.67 3.34 -8.34 2.68 -8 2 C-5.36 2 -2.72 2 0 2 C0 1.34 0 0.68 0 0 Z " fill="#38575A" transform="translate(98,64)"/>
<path d="M0 0 C0.99 0.33 1.98 0.66 3 1 C3.33 2.98 3.66 4.96 4 7 C2.0625 6.25 2.0625 6.25 0 5 C-0.8125 2.9375 -0.8125 2.9375 -1 1 C-0.67 0.67 -0.34 0.34 0 0 Z " fill="#223335" transform="translate(56,65)"/>
<path d="M0 0 C0 1.98 0 3.96 0 6 C-0.99 6.33 -1.98 6.66 -3 7 C-3.33 5.02 -3.66 3.04 -4 1 C-2 0 -2 0 0 0 Z " fill="#2A3638" transform="translate(134,33)"/>
<path d="M0 0 C0.99 0 1.98 0 3 0 C3.66 0.99 4.32 1.98 5 3 C6.32 3 7.64 3 9 3 C8.67 4.32 8.34 5.64 8 7 C4.2047869 5.50902342 2.38957269 3.24299151 0 0 Z " fill="#000004" transform="translate(84,27)"/>
<path d="M0 0 C0.8971875 0.309375 0.8971875 0.309375 1.8125 0.625 C0.843125 1.24375 -0.12625 1.8625 -1.125 2.5 C-4.21585362 4.28178846 -4.21585362 4.28178846 -5.1875 6.625 C-5.8475 6.625 -6.5075 6.625 -7.1875 6.625 C-4.6484375 -0.796875 -4.6484375 -0.796875 0 0 Z " fill="#000000" transform="translate(160.1875,30.375)"/>
<path d="M0 0 C0.33 0 0.66 0 1 0 C1 1.98 1 3.96 1 6 C-0.32 6.33 -1.64 6.66 -3 7 C-2.67 5.35 -2.34 3.7 -2 2 C-1.34 2 -0.68 2 0 2 C0 1.34 0 0.68 0 0 Z " fill="#071B1D" transform="translate(41,0)"/>
<path d="M0 0 C0.99 0.33 1.98 0.66 3 1 C2.01 1.495 2.01 1.495 1 2 C1 2.66 1 3.32 1 4 C0.01 4.495 0.01 4.495 -1 5 C-1.33 5.99 -1.66 6.98 -2 8 C-2.6875 5.6875 -2.6875 5.6875 -3 3 C-1.5625 1.1875 -1.5625 1.1875 0 0 Z " fill="#3E4D4F" transform="translate(57,172)"/>
<path d="M0 0 C1.17219543 0.78345715 2.33763668 1.57702836 3.5 2.375 C4.47453125 3.03628906 4.47453125 3.03628906 5.46875 3.7109375 C5.9740625 4.13632813 6.479375 4.56171875 7 5 C7 5.66 7 6.32 7 7 C3.76509224 6.44225728 2.02144994 5.62788492 0 3 C0 2.01 0 1.02 0 0 Z " fill="#000000" transform="translate(31,167)"/>
<path d="M0 0 C3.63 0 7.26 0 11 0 C9.68 0.99 8.36 1.98 7 3 C3.25 2.1875 3.25 2.1875 0 1 C0 0.67 0 0.34 0 0 Z " fill="#000E13" transform="translate(10,146)"/>
<path d="M0 0 C0.33 0.99 0.66 1.98 1 3 C-2 5 -2 5 -5 5 C-4.67 3.68 -4.34 2.36 -4 1 C-2.68 0.67 -1.36 0.34 0 0 Z " fill="#222222" transform="translate(179,138)"/>
<path d="M0 0 C1.32 0.66 2.64 1.32 4 2 C3.67 3.32 3.34 4.64 3 6 C2.01 5.67 1.02 5.34 0 5 C-0.75 3 -0.75 3 -1 1 C-0.67 0.67 -0.34 0.34 0 0 Z " fill="#0B1617" transform="translate(150,137)"/>
<path d="M0 0 C0.99 0.33 1.98 0.66 3 1 C2.67 1.99 2.34 2.98 2 4 C0.02 4.33 -1.96 4.66 -4 5 C-3.34 3.68 -2.68 2.36 -2 1 C-1.34 1.33 -0.68 1.66 0 2 C0 1.34 0 0.68 0 0 Z " fill="#404C50" transform="translate(177,135)"/>
<path d="M0 0 C1.32 0 2.64 0 4 0 C3.67 1.65 3.34 3.3 3 5 C2.01 5 1.02 5 0 5 C0 3.35 0 1.7 0 0 Z " fill="#414E4F" transform="translate(33,128)"/>
<path d="M0 0 C1.9375 0.3125 1.9375 0.3125 4 1 C4.33 1.99 4.66 2.98 5 4 C2.36 4 -0.28 4 -3 4 C-2.01 2.68 -1.02 1.36 0 0 Z " fill="#142121" transform="translate(152,94)"/>
<path d="M0 0 C-0.66 1.32 -1.32 2.64 -2 4 C-2.66 4 -3.32 4 -4 4 C-4 4.66 -4 5.32 -4 6 C-4.66 6 -5.32 6 -6 6 C-5.625 3.5625 -5.625 3.5625 -5 1 C-3 0 -3 0 0 0 Z " fill="#2C3738" transform="translate(69,96)"/>
<path d="M0 0 C0.6875 1.625 0.6875 1.625 1 4 C-0.4375 7.25 -0.4375 7.25 -2 10 C-2.33 10 -2.66 10 -3 10 C-3.36923077 4.58461538 -3.36923077 4.58461538 -1.5 1.625 C-1.005 1.08875 -0.51 0.5525 0 0 Z " fill="#000000" transform="translate(113,76)"/>
<path d="M0 0 C1.65 0 3.3 0 5 0 C3.68 2.31 2.36 4.62 1 7 C0.67 7 0.34 7 0 7 C0 4.69 0 2.38 0 0 Z " fill="#11272B" transform="translate(0,41)"/>
<path d="M0 0 C1.98 0 3.96 0 6 0 C6.33 0.99 6.66 1.98 7 3 C2.25 4.125 2.25 4.125 0 3 C0 2.01 0 1.02 0 0 Z " fill="#172A2A" transform="translate(77,24)"/>
<path d="M0 0 C2.31 1.98 4.62 3.96 7 6 C6.01 6.33 5.02 6.66 4 7 C2 5.1875 2 5.1875 0 3 C0 2.01 0 1.02 0 0 Z " fill="#000000" transform="translate(31,22)"/>
<path d="M0 0 C0.66 0.66 1.32 1.32 2 2 C0.37660195 3.70884005 -1.29319053 5.37446717 -3 7 C-3.66 7 -4.32 7 -5 7 C-5 6.01 -5 5.02 -5 4 C-4.01 4 -3.02 4 -2 4 C-1.34 2.68 -0.68 1.36 0 0 Z " fill="#102833" transform="translate(119,5)"/>
<path d="M0 0 C0 1.32 0 2.64 0 4 C-1.65 4 -3.3 4 -5 4 C-5 3.01 -5 2.02 -5 1 C-3 0 -3 0 0 0 Z " fill="#58666A" transform="translate(134,176)"/>
<path d="M0 0 C2 1 2 1 2 1 Z M-1 1 C0.32 2.32 1.64 3.64 3 5 C1.68 5.33 0.36 5.66 -1 6 C-1 5.34 -1 4.68 -1 4 C-1.66 3.67 -2.32 3.34 -3 3 C-2.34 2.34 -1.68 1.68 -1 1 Z " fill="#4B5B5C" transform="translate(23,138)"/>
<path d="M0 0 C0.99 0.33 1.98 0.66 3 1 C3 1.66 3 2.32 3 3 C3.66 3.33 4.32 3.66 5 4 C3.35 4.33 1.7 4.66 0 5 C-0.5625 3.0625 -0.5625 3.0625 -1 1 C-0.67 0.67 -0.34 0.34 0 0 Z " fill="#1A2829" transform="translate(175,115)"/>
<path d="M0 0 C4.875 4.75 4.875 4.75 6 7 C3.13275314 6.42655063 2.1385485 6.1385485 0 4 C0 2.68 0 1.36 0 0 Z " fill="#203438" transform="translate(75,61)"/>
<path d="M0 0 C2.31 1.65 4.62 3.3 7 5 C6.67 5.99 6.34 6.98 6 8 C1.3125 4.38671875 1.3125 4.38671875 0 3 C0 2.01 0 1.02 0 0 Z " fill="#00001A" transform="translate(41,50)"/>
<path d="M0 0 C1.32 0.33 2.64 0.66 4 1 C4 2.32 4 3.64 4 5 C2.68 4.67 1.36 4.34 0 4 C0 2.68 0 1.36 0 0 Z " fill="#455556" transform="translate(141,22)"/>
<path d="M0 0 C0.75 1.6875 0.75 1.6875 1 4 C-0.9375 6.75 -0.9375 6.75 -3 9 C-3.36923077 3.46153846 -3.36923077 3.46153846 -1.5 1.125 C-1.005 0.75375 -0.51 0.3825 0 0 Z " fill="#020F1D" transform="translate(113,9)"/>
<path d="M0 0 C2.31 0 4.62 0 7 0 C7.33 0.66 7.66 1.32 8 2 C5.36 2.33 2.72 2.66 0 3 C0 2.01 0 1.02 0 0 Z " fill="#2B3637" transform="translate(129,0)"/>
<path d="M0 0 C0.33 0 0.66 0 1 0 C1 2.97 1 5.94 1 9 C0.34 8.67 -0.32 8.34 -1 8 C-1.75 5.625 -1.75 5.625 -2 3 C-1.34 2.01 -0.68 1.02 0 0 Z " fill="#283131" transform="translate(148,157)"/>
<path d="M0 0 C0.66 0.33 1.32 0.66 2 1 C1.25 5.75 1.25 5.75 -1 8 C-1.33 6.35 -1.66 4.7 -2 3 C-1.34 3 -0.68 3 0 3 C0 2.01 0 1.02 0 0 Z " fill="#2A4546" transform="translate(146,154)"/>
<path d="M0 0 C0.33 0.99 0.66 1.98 1 3 C0.01 4.485 0.01 4.485 -1 6 C-2.32 4.68 -3.64 3.36 -5 2 C-2 0 -2 0 0 0 Z " fill="#0D3D44" transform="translate(105,154)"/>
<path d="M0 0 C1.32 0.33 2.64 0.66 4 1 C4 1.99 4 2.98 4 4 C2.02 4.99 2.02 4.99 0 6 C0 4.02 0 2.04 0 0 Z " fill="#505B5B" transform="translate(156,75)"/>
<path d="M0 0 C0.33 0.99 0.66 1.98 1 3 C1.66 3 2.32 3 3 3 C3 4.65 3 6.3 3 8 C2.01 7.67 1.02 7.34 0 7 C0 4.69 0 2.38 0 0 Z " fill="#1C2728" transform="translate(177,38)"/>
<path d="M0 0 C0.78375 0.04125 1.5675 0.0825 2.375 0.125 C1.055 1.445 -0.265 2.765 -1.625 4.125 C-2.615 3.465 -3.605 2.805 -4.625 2.125 C-2.625 0.125 -2.625 0.125 0 0 Z " fill="#173136" transform="translate(151.625,41.875)"/>
</svg>
